<?xml version="1.0" encoding="utf-8"?>
<!-- Generator: Adobe Illustrator 27.0.1, SVG Export Plug-In . SVG Version: 6.00 Build 0)  -->
<svg version="1.1" id="Layer_1" xmlns="http://www.w3.org/2000/svg" xmlns:xlink="http://www.w3.org/1999/xlink" x="0px" y="0px"
	 viewBox="0 0 281.8 84" style="enable-background:new 0 0 281.8 84;" xml:space="preserve">
<style type="text/css">
	.st0{fill:#FFFFFF;}
</style>
<g>
	<path class="st0" d="M153.7,21.2c0.7,0,0.9,0.5,0.9,1.2c0,5.2-7.4,16.8-16,25.5C140.7,37.3,149.7,21.2,153.7,21.2z M135.6,12.4
		c0.7,0,0.9,0.4,0.9,1.2c0,5.3-10.9,22.2-20.2,32.2C117.7,31.6,131,12.4,135.6,12.4z M79.7,62.7c3.8,0,7.5-2.6,10.9-6.6
		c0.2,3.6,2.6,6.2,6.5,6.2c3.6,0,7.1-1.8,11.7-6.1c1.4,3.8,4.9,6.5,9.6,6.5c4.5,0,8.2-1.6,12.6-5.3c1.2,3.4,3.9,5.3,7.8,5.3
		c4.5,0,8.5-2.4,12.4-7.1c-0.1,3.4,1.6,5.8,4.5,5.8c3.4,0,7.4-2.6,11-6.5l-10.1,21.8c-0.4,0.9-0.1,1.6,0.8,1.5l6-0.5
		c1.1-0.1,1.4-0.5,1.9-1.5l20.3-43.4c0.4-0.9,0.1-1.6-0.9-1.5l-6,0.5c-1,0.1-1.4,0.5-1.9,1.5l-2.4,5.2c-3.5,7.7-10.6,16-13.6,16
		c-1.4,0-1.4-1.9-0.2-4.3l8.7-17.5c0.5-0.9,0.1-1.6-0.8-1.5l-6,0.5c-1.1,0.1-1.4,0.5-1.9,1.5l-4,8c-5.3,10.5-10.5,16-14.7,16
		c-2.1,0-3.4-1.4-3.7-4c12.4-11.2,21.1-24,21.1-31c0-3.6-1.8-5.7-4.7-5.7c-6.7,0-15.5,10.6-20.5,21.7c-2.5,5.6-3.9,11-3.8,15.3
		c-3.4,2.8-5.8,3.8-8.4,3.8c-3.3,0-5.2-2.4-5.7-6.3c14.2-13.4,25.1-29.4,25.1-37.9c0-3.3-1.7-5.5-4.7-5.5c-7.4,0-18.6,12.4-24.9,26
		c-3.3,7-4.5,13.3-3.9,18.6c-3.7,3.4-5.8,4.7-7.7,4.7c-2.1,0-2.5-1.9-1-4.9l4.2-9.1c0.4-0.8,0-1.6-0.8-1.5L96.5,42
		c-1,0.1-1.3,0.4-1.9,1.5l-0.6,1.3c-2.9,6.1-7.6,11.5-10.6,11.5c-1,0-1.5-0.6-1.5-1.8c0-4.2,6.7-19,15.3-20.5
		c0.5,2.2,2.5,4.2,4.9,4.2c2.4,0,4-1.6,4-3.5c0-2.4-2.4-4.5-6.7-4.5c-13.3,0-26.1,15.3-26.1,25.3C73.2,60.1,75.6,62.7,79.7,62.7z
		 M24.5,66.9c11.3,0,16.9-12.3,21.8-24.6c4.4-11,8.6-21.5,16.7-24.4c0.8-0.3,0.6-1.7-0.2-1.8c-14.6-0.6-21.5,15.8-26.8,28.8
		c-4.7,11.5-7.7,16.9-12.1,16.9c-3.4,0-5.2-2.6-5.2-7.1c0-14.4,19.2-44.3,45.2-44.3c8.7,0,13.9,3.2,13.9,8.5c0,7.4-7,12.9-20.3,16
		c-0.9,0.2-1.2,0.7-1.2,1.2c0,0.6,0.4,1,1.2,1.5c3.8,1.9,5.3,4.9,5.3,8.4c0,5.8-4.2,12.8-9.2,12.8c-0.6,0-1.2-0.2-1.5-0.3
		c0.5-0.9,0.7-1.9,0.7-3c0-2.5-2-4.6-4.2-4.6c-2.2,0-3.9,1.8-3.9,4.1c0,4.5,4.2,7.7,10.3,7.7c9.6,0,16.5-7,16.5-15.2
		c0-4.8-2.7-8.6-7.7-10.8C78.3,34.6,87,28.2,87,19C87,11.3,79.1,6,66.8,6c-31,0-53.7,25.6-53.7,47C13.1,61.7,17.3,66.9,24.5,66.9z
		 M209.4,46.3c3.2,0.7,4.9,3.2,4.9,6.9c0,4.8-2.8,7.9-8.8,7.9h-8.1V32h8c5.6,0,8.2,2.9,8.2,7.6C213.6,43.3,212,45.5,209.4,46.3
		L209.4,46.3L209.4,46.3z M203.2,44.2h1.5c2.2,0,3-1.2,3-3.7c0-2.5-0.7-3.6-3-3.6h-1.5V44.2z M203.2,56.1h1.8c2.3,0,3.1-1.3,3.1-3.7
		c0-2.4-0.8-3.7-3.1-3.7h-1.8V56.1z M231.2,61h-14.2V32h14.2v5.2h-8v6.7h6.8v4.9h-6.8v7.1h8V61z M239,61V37.2h-5.5V32h17.2v5.2h-5.5
		V61L239,61L239,61z"/>
</g>
</svg>
