<svg width="80" height="30" viewBox="0 0 80 30" fill="none" xmlns="http://www.w3.org/2000/svg">
<g clip-path="url(#clip0_6_871)">
<path d="M27.7324 20.9854C29.5526 20.0028 31.2028 18.5657 32.9254 16.4672C34.4251 14.6408 38.9491 7.6321 38.9491 7.6321L44.2815 15.8575H52.0502C50.9101 14.1645 44.1756 4.16449 42.9882 2.26465C41.9122 0.544454 39.7826 -0.351028 37.9261 0.130736C36.7498 0.435581 35.8578 1.04799 35.1944 1.99519C35.0801 2.16122 34.6732 2.75186 34.0906 3.59835C31.8606 6.84821 27.2167 13.612 26.4613 14.5646C25.1373 16.2331 23.2697 17.1258 21.0564 17.1422C16.6411 17.1776 7.20557 17.1531 7.1108 17.1531H6.95192V13.7916H7.1108C7.63763 13.7862 20.0223 13.6909 20.8641 13.778C21.7645 13.8705 22.4195 14.6326 22.4251 15.588V15.8901C24.2787 15.4819 26.2606 13.6582 26.8014 11.8537L25.9902 11.3692L26.2467 11.2412C26.3192 11.2059 26.3638 11.1841 26.3944 11.165C28.3429 9.86944 29.1568 8.03493 28.8139 5.71049C28.577 4.09916 27.7352 2.83351 26.3136 1.94347C24.9115 1.06705 23.1972 0.590725 21.2209 0.525401C19.1303 0.457355 5.84251 0.441025 4.69965 0.438303L0.0641115 6.09426C2.22718 6.09426 14.3638 6.09971 20.3875 6.10243H20.4209C20.6411 6.10243 20.8641 6.10243 21.0871 6.12693C21.4495 6.16775 21.8258 6.40727 22.0878 6.76928C22.3359 7.10678 22.4362 7.4824 22.3666 7.79813C22.1631 8.72355 21.5861 9.1917 20.6523 9.1917H20.4293C17.5443 9.1917 1.76446 9.29513 0 9.30602V22.5205L22.0655 22.4007C22.8599 22.3953 23.7129 22.3654 24.5631 22.1639C25.7394 21.8836 26.7735 21.4998 27.7268 20.9854H27.7324Z" fill="white"/>
<path d="M78.3889 10.343C77.3492 9.43659 76.0195 9.19979 74.7485 9.03376C74.2021 8.96299 70.8432 8.80513 67.5931 8.6527C64.145 8.49212 60.8892 8.33697 60.368 8.2662C59.8411 8.19271 59.4007 7.8171 59.1917 7.26185C58.9715 6.67393 59.069 6.04791 59.4509 5.62875C59.6627 5.39467 60 5.20142 60.3094 5.1361C61.1875 4.95102 62.6704 4.90474 63.2669 4.89386C65.207 4.85847 70.4167 4.97007 71.1275 5.04356C72.1533 5.15243 72.6607 5.70496 72.6328 6.67938L72.6439 7.07949H79.1638L79.1499 6.76648C79.1359 6.5079 79.1248 6.24388 79.1164 5.98259C79.0913 5.34568 79.0662 4.68428 78.9631 4.05281C78.7317 2.63202 78.0404 1.67121 76.853 1.11324C75.7241 0.585201 74.4418 0.283078 72.931 0.185092C71.2725 0.0789406 60.4906 -0.0925347 57.0007 0.413726C55.9833 0.560704 55.1052 0.936317 54.3917 1.5324C53.4718 2.29995 52.9701 3.35602 52.7666 4.9619C52.5241 6.86174 52.5714 8.39413 52.9087 9.78498C53.1011 10.5798 53.391 11.1894 53.8174 11.6957C54.6899 12.7354 55.8829 13.0784 57.4077 13.2716C57.9429 13.3397 58.4948 13.3615 59.0328 13.3805C59.2251 13.3887 59.4174 13.3941 59.607 13.405C62.2383 13.5329 70.2774 13.8351 71.6181 13.8786C72.7526 13.914 73.3073 14.3522 73.469 15.343C73.5694 15.9608 73.4523 16.5297 73.1206 17.0332L73.0732 17.104H43.4258L43.3784 17.0251C42.0683 14.8285 39.5847 10.656 38.9631 9.60807C38.5896 10.2912 37.5415 12.2074 37.0063 13.0838C35.6878 15.2423 34.3498 17.0196 32.9115 18.5166C31.1721 20.3266 29.5275 21.5378 27.7408 22.3272C27.646 22.368 27.515 22.4224 27.3701 22.4823C31.462 22.4905 50.2857 22.5286 59.83 22.5231C60.315 22.5231 60.8 22.5095 61.285 22.4959C61.7756 22.4823 62.2662 22.4687 62.7568 22.4687H62.7652C63.2641 22.4687 63.7742 22.4823 64.2648 22.4959C64.7108 22.5095 65.1568 22.5204 65.6028 22.5231C66.4335 22.5286 67.2641 22.5259 68.0976 22.5231H69.3352C69.9122 22.5231 70.4892 22.5231 71.0662 22.5286C72.5742 22.5422 74.3248 22.5204 76.0251 22.1339C77.2962 21.8454 78.1826 21.3255 78.8154 20.5035C79.5735 19.5182 79.7603 18.3533 79.8997 17.1475C80.0697 15.675 80.0195 14.227 79.7547 12.8416C79.5512 11.7855 79.1053 10.969 78.3917 10.3457H78.3889V10.343Z" fill="white"/>
<path d="M2.5059 29.8421H0.105896V23.9603H2.5059C3.44248 23.9603 4.55468 24.2842 4.55468 25.4709C4.55468 26.1187 4.15607 26.5514 3.56792 26.742V26.7583C4.25642 26.8753 4.80276 27.3571 4.80276 28.1301C4.80276 29.4094 3.65433 29.8421 2.5059 29.8421ZM2.22436 25.0898H1.51077V26.3038H2.29405C2.8376 26.3038 3.15259 26.0806 3.15259 25.6641C3.15259 25.2477 2.8376 25.0898 2.22436 25.0898ZM2.31914 27.3489H1.51077V28.6935H2.3275C2.78743 28.6935 3.34771 28.5683 3.34771 27.9967C3.34771 27.5068 2.93795 27.3489 2.31914 27.3489Z" fill="white"/>
<path d="M5.76166 29.8421V23.9603H9.81183V25.1633H7.16654V26.2684H9.66688V27.4061H7.16654V28.6282H9.96514V29.8421H5.76166Z" fill="white"/>
<path d="M13.5024 25.1742V29.8421H12.0474V25.1742H10.347V23.9603H15.2028V25.1742H13.5024Z" fill="white"/>
<path d="M19.4397 29.8421L18.9714 28.6881H16.6411L16.1979 29.8421H14.6146L17.1401 23.9603H18.5533L21.0536 29.8421H19.4369H19.4397ZM17.823 25.5308L17.0564 27.5504H18.57L17.8202 25.5308H17.823Z" fill="white"/>
<path d="M25.3854 29.8421L22.9603 25.9962H22.9352L22.9687 29.8421H21.5554V23.9603H23.214L25.6307 27.798H25.6558L25.6223 23.9603H27.0356V29.8421H25.3854Z" fill="white"/>
<path d="M31.2028 27.3517V29.8421H29.7477V27.3517L27.4843 23.963H29.246L30.531 26.1377L31.816 23.963H33.5164L31.2028 27.3517Z" fill="white"/>
<path d="M37.1485 25.4899C36.9004 25.1824 36.4516 24.9837 36.0753 24.9837C35.699 24.9837 35.2335 25.1089 35.2335 25.5743C35.2335 25.9635 35.5903 26.0887 36.1617 26.2629C36.9784 26.5215 38.0321 26.8617 38.0321 28.0321C38.0321 29.3849 36.9171 29.9918 35.7269 29.9918C34.8683 29.9918 33.9986 29.6843 33.4718 29.1454L34.4251 28.1982C34.715 28.5547 35.2502 28.8215 35.7269 28.8215C36.1701 28.8215 36.5603 28.6554 36.5603 28.1818C36.5603 27.7327 36.1004 27.5912 35.3087 27.3435C34.5422 27.104 33.7701 26.7202 33.7701 25.6587C33.7701 24.3549 34.977 23.8133 36.1004 23.8133C36.7805 23.8133 37.5471 24.0637 38.0739 24.5373L37.1457 25.4927L37.1485 25.4899Z" fill="white"/>
<path d="M41.1707 27.6238H40.4488V29.8421H38.9937V23.9603H41.2042C42.5226 23.9603 43.5596 24.4257 43.5596 25.7703C43.5596 27.1149 42.4279 27.6211 41.1679 27.6211H41.1707V27.6238ZM41.0871 25.1062H40.4488V26.4943H41.062C41.6056 26.4943 42.1073 26.3364 42.1073 25.7812C42.1073 25.2259 41.6056 25.1089 41.0871 25.1089V25.1062Z" fill="white"/>
<path d="M47.4314 30C45.5526 30 44.1561 28.7371 44.1561 26.8781C44.1561 25.0191 45.5499 23.8051 47.4314 23.8051C49.3129 23.8051 50.715 24.9918 50.715 26.8781C50.715 28.7643 49.3213 30 47.4314 30ZM47.4314 25.0817C46.4112 25.0817 45.7143 25.8465 45.7143 26.8753C45.7143 27.9042 46.4195 28.7017 47.4314 28.7017C48.4432 28.7017 49.1596 27.9369 49.1596 26.8753C49.1596 25.8138 48.4544 25.0817 47.4314 25.0817Z" fill="white"/>
<path d="M54.899 29.8421L53.5972 27.5068H53.1039V29.8421H51.6739V23.9603H53.9708C55.1275 23.9603 56.276 24.393 56.276 25.7376C56.276 26.527 55.7993 27.0904 55.0244 27.3244L56.5993 29.8421H54.899ZM53.8704 25.1089H53.0955V26.4807H53.784C54.2523 26.4807 54.8377 26.3636 54.8377 25.7676C54.8377 25.2205 54.3025 25.1116 53.8676 25.1116L53.8704 25.1089Z" fill="white"/>
<path d="M59.791 25.1742V29.8421H58.3359V25.1742H56.6356V23.9603H61.4941V25.1742H59.791Z" fill="white"/>
<path d="M65.3352 25.4899C65.0899 25.1824 64.6384 24.9837 64.2621 24.9837C63.8857 24.9837 63.4202 25.1089 63.4202 25.5743C63.4202 25.9635 63.777 26.0887 64.3485 26.2629C65.1652 26.5215 66.2188 26.8617 66.2188 28.0321C66.2188 29.3849 65.1039 29.9918 63.9136 29.9918C63.0551 29.9918 62.1854 29.6843 61.6586 29.1454L62.6119 28.1982C62.9018 28.5547 63.437 28.8215 63.9136 28.8215C64.3568 28.8215 64.7471 28.6554 64.7471 28.1818C64.7471 27.7327 64.2871 27.5912 63.4955 27.3435C62.729 27.104 61.9568 26.7202 61.9568 25.6587C61.9568 24.3549 63.1638 23.8133 64.2871 23.8133C64.9673 23.8133 65.7338 24.0637 66.2607 24.5373L65.3324 25.4927H65.3352V25.4899Z" fill="white"/>
<path d="M67.8439 29.9265C67.3756 29.9265 66.977 29.5781 66.977 29.1209C66.977 28.6636 67.3672 28.2989 67.8439 28.2989C68.3205 28.2989 68.6941 28.6554 68.6941 29.1127C68.6941 29.57 68.3038 29.9265 67.8439 29.9265Z" fill="white"/>
<path d="M69.731 29.8421V23.9603H73.7812V25.1633H71.1359V26.2684H73.6362V27.4061H71.1359V28.6282H73.9345V29.8421H69.731Z" fill="white"/>
<path d="M77.4049 30C75.8216 30 74.8348 29.0365 74.8348 27.6238V23.9603H76.2815V27.5068C76.2815 28.1383 76.5965 28.7207 77.4132 28.7207C78.23 28.7207 78.5449 28.1383 78.5449 27.5068V23.9603H80V27.6238C80 29.0365 78.9798 30 77.4049 30Z" fill="white"/>
</g>
<defs>
<clipPath id="clip0_6_871">
<rect width="80" height="30" fill="white"/>
</clipPath>
</defs>
</svg>
