<svg width="134" height="18" viewBox="0 0 640 86" fill="none" xmlns="http://www.w3.org/2000/svg"><path d="M425.07 0.0986328H437.848V74.1818H476.681V85.6021H425.07V0.0986328Z" fill="white"></path><path fill-rule="evenodd" clip-rule="evenodd" d="M313.761 3.4746C319.152 5.65935 323.844 8.63857 327.737 12.5115C331.631 16.3845 334.625 20.9527 336.822 26.1166C339.018 31.3799 340.116 37.0404 340.116 43.0982C340.116 49.1559 339.018 54.9157 336.822 60.0797C334.625 65.2437 331.631 69.8118 327.737 73.6848C323.844 77.4584 319.152 80.537 313.761 82.7217C308.271 84.9065 302.281 85.9988 295.892 85.9988C289.403 85.9988 283.413 84.9065 278.023 82.7217C272.632 80.537 267.94 77.5577 264.047 73.6848C260.253 69.9111 257.159 65.2437 254.962 60.0797C252.766 54.8164 251.668 49.1559 251.668 43.0982C251.668 37.0404 252.766 31.2806 254.962 26.1166C257.159 20.9527 260.153 16.3845 264.047 12.5115C267.94 8.73788 272.632 5.65935 278.023 3.4746C283.513 1.28984 289.503 0.197459 295.892 0.197459C302.381 0.197459 308.37 1.28984 313.761 3.4746ZM324.643 55.3129C326.14 51.5393 326.839 47.3684 326.839 43.0982C326.839 38.8279 326.04 34.657 324.643 30.8834C323.245 27.1097 321.149 23.7333 318.453 20.9527C315.758 18.1721 312.563 15.888 308.77 14.1998C305.076 12.5115 300.784 11.7171 296.092 11.7171C291.4 11.7171 287.207 12.5115 283.413 14.1998C279.72 15.888 276.425 18.1721 273.73 20.9527C271.135 23.7333 269.038 27.1097 267.541 30.8834C266.043 34.657 265.344 38.8279 265.344 43.0982C265.344 47.3684 266.043 51.5393 267.541 55.3129C268.938 59.0866 271.035 62.4631 273.73 65.2437C276.425 68.0243 279.62 70.3083 283.413 71.9965C287.107 73.6848 291.4 74.4792 296.092 74.4792C300.784 74.4792 304.976 73.6848 308.77 71.9965C312.463 70.3083 315.758 68.0243 318.453 65.2437C321.049 62.4631 323.145 59.0866 324.643 55.3129Z" fill="white"></path><path d="M497.046 0.0986328H484.268V85.7014H497.046V0.0986328Z" fill="white"></path><path d="M594.778 48.2626V74.1818H640V85.6021H582V0.0986328H637.804V11.6183H594.778V36.743H634.909V48.2626H594.778Z" fill="white"></path><path d="M405.404 56.9023L347.803 0.0986328V85.6021H359.782V29.4935L417.483 85.6021V0.0986328H405.404V56.9023Z" fill="white"></path><path d="M504.633 0.0986328L562.334 57.2996V0.0986328H574.313V85.2049L516.712 29.8908V85.6021H504.633V0.0986328Z" fill="white"></path><path fill-rule="evenodd" clip-rule="evenodd" d="M113.405 60.8753V61.3718C113.405 61.5704 113.405 61.769 113.505 61.8684V62.2656C113.405 66.6351 112.307 70.3095 110.211 73.2887C108.014 76.2679 105.219 78.7506 101.825 80.5381C98.4308 82.4249 94.5375 83.7159 90.2449 84.5104C85.9523 85.3048 81.6597 85.7021 77.367 85.7021H37.4357V36.4457H37.236C37.236 36.4457 7.08782 34.4596 0 34.4596C0 34.4596 20.1653 32.7714 37.236 32.4734H37.4357L37.3358 0H73.3739C77.5667 0 81.7595 0.297921 85.9523 0.794457C90.1451 1.3903 94.0384 2.38337 97.4325 3.97229C100.827 5.5612 103.722 7.84526 105.818 10.7252C108.014 13.6051 109.112 17.3787 109.112 22.1455C109.112 27.0115 107.615 31.0831 104.52 34.261L103.722 35.0554C103.722 35.0554 103.422 35.4527 102.723 36.0485C101.925 36.6443 101.126 37.2402 99.9282 37.9353C99.8284 37.985 99.7536 38.0346 99.6787 38.0843C99.6038 38.1339 99.5289 38.1836 99.4291 38.2333C93.1399 35.4527 86.0521 33.8637 80.861 32.97C83.9557 31.679 85.2535 30.388 85.6528 29.8915C85.799 29.7461 85.8916 29.6007 86.0091 29.4163C86.0521 29.3488 86.0984 29.2761 86.1519 29.1963C86.8507 28.0046 87.25 26.6143 87.25 25.0254C87.25 23.3372 86.8507 22.0462 86.0521 20.9538C85.1536 19.8614 84.1554 19.067 82.8576 18.4711C81.46 17.776 79.9626 17.3788 78.2655 17.0808C76.5684 16.7829 74.8713 16.6836 73.2741 16.6836H58.9986L59.0984 33.0693H59.7972C82.9574 34.4596 98.7303 38.6305 106.617 45.6813C107.415 46.2771 111.608 49.8522 113.006 56.6051L113.205 57.3002V57.5981C113.205 57.7471 113.23 57.8961 113.255 58.045C113.28 58.194 113.305 58.343 113.305 58.4919V58.8891C113.305 59.2367 113.33 59.5595 113.355 59.8822C113.38 60.205 113.405 60.5277 113.405 60.8753ZM90.5444 63.7552L90.6442 63.5566C91.343 62.2656 93.0401 57.9954 88.8473 52.7321C86.1519 49.6536 79.7629 45.2841 65.4874 41.5104L56.6027 39.4249L57.8007 40.8152L58.0003 41.0139C58.0262 41.0654 58.0723 41.1303 58.1316 41.2138C58.3007 41.4521 58.5772 41.8417 58.7989 42.5035L59.0984 43.3972C59.1068 43.4722 59.1152 43.5465 59.1235 43.6203C59.2143 44.4257 59.2981 45.1688 59.2981 46.0785C59.1983 48.7598 59.0984 61.6697 59.0984 67.3303V69.1178L59.8971 69.2171H77.6665C79.2638 69.2171 80.9609 69.0185 82.6579 68.7205C84.355 68.4226 85.8524 67.8268 87.1502 67.0323C88.448 66.2379 89.5461 65.2448 90.4445 63.9538C90.4445 63.9538 90.5444 63.8545 90.5444 63.7552Z" fill="#EE3536"></path><path d="M120.693 85.7016V0.0988264H178.194V17.4776H140.558V33.6647H176.197V50.2489H140.658V68.0249H180.39V85.7016H120.693Z" fill="#EE3536"></path><path d="M257.757 8.53994C261.251 5.16349 265.244 2.38289 269.736 0.0988264H185.781V17.7755H209.939V85.7016H230.604V17.7755H250.37C252.466 14.3991 254.962 11.3205 257.757 8.53994Z" fill="#EE3536"></path></svg>