<svg version="1.1" id="BetRivers" xmlns:x="ns_extend;" xmlns:i="ns_ai;" xmlns:graph="ns_graphs;" xmlns="http://www.w3.org/2000/svg" xmlns:xlink="http://www.w3.org/1999/xlink" x="0px" y="0px" viewBox="0 0 249.5 100" style="enable-background:new 0 0 249.5 100;" xml:space="preserve">
 <style type="text/css">
  .st0{fill:#FFFFFF;}
	.st1{fill:#FDB61B;}
 </style>
 <metadata>
  <sfw xmlns="ns_sfw;">
   <slices>
   </slices>
   <sliceSourceBounds bottomLeftOrigin="true" height="100" width="249.5" x="-180.4" y="0.3">
   </sliceSourceBounds>
  </sfw>
 </metadata>
 <g>
  <g>
   <g>
    <g>
     <path class="st0" d="M20.5,89.9c0.9,0.5,1.6,1.1,2.1,1.8c0.5,0.7,0.8,1.5,0.8,2.5c0,0.8-0.2,1.5-0.5,2.1
					c-0.3,0.7-0.8,1.2-1.4,1.7c-0.6,0.5-1.3,0.8-2.2,1.1c-0.9,0.3-1.8,0.4-3,0.4H0V80.9h15.8c1.1,0,2.1,0.2,3,0.6
					c0.9,0.4,1.7,0.9,2.3,1.6c0.8,0.9,1.3,2,1.3,3.2c0,0.8-0.2,1.5-0.5,2C21.6,88.9,21.1,89.4,20.5,89.9z M17.2,87.6
					c0.4-0.4,0.6-0.8,0.6-1.4c0-0.5-0.2-1-0.6-1.3c-0.4-0.3-0.9-0.5-1.5-0.5H4.5v3.8h11.4C16.4,88.2,16.9,88,17.2,87.6z M18,95.5
					c0.5-0.3,0.7-0.8,0.7-1.5s-0.3-1.2-0.7-1.6s-1.2-0.6-2-0.6H4.5V96h11.4C16.9,96,17.6,95.8,18,95.5z">
     </path>
     <path class="st0" d="M32.7,99.6V80.9h20.3v3.6H37.2v3.9h10.9v3.6H37.2V96h16.5v3.6H32.7z">
     </path>
     <path class="st0" d="M72.9,84.5v15.1h-4.5V84.5h-8.9v-3.6h22.4v3.6H72.9z">
     </path>
    </g>
    <g>
     <path class="st1" d="M106.6,99.5l-4.6-6.6h-8.6v6.6h-4.5V80.9h15.3c1.1,0,2,0.2,2.9,0.4c0.9,0.3,1.6,0.7,2.2,1.3
					c0.6,0.5,1.1,1.2,1.4,1.9c0.3,0.8,0.5,1.6,0.5,2.5c0,3-1.4,4.9-4.3,5.6l4.8,6.9L106.6,99.5L106.6,99.5L106.6,99.5z M105.9,88.7
					c0.5-0.4,0.8-1.1,0.8-1.8c0-0.7-0.3-1.3-0.8-1.8c-0.5-0.4-1.3-0.7-2.3-0.7H93.3v5h10.3C104.6,89.4,105.4,89.1,105.9,88.7z">
     </path>
     <path class="st1" d="M119.9,99.5V80.9h4.5v18.7C124.4,99.5,119.9,99.5,119.9,99.5z">
     </path>
     <path class="st1" d="M146.4,99.5h-4.2l-11.1-18.7h5.1l8.1,13.7l8.1-13.7h5.1L146.4,99.5z">
     </path>
     <path class="st1" d="M163.7,99.5V80.9h20.3v3.6h-15.7v3.9h10.9v3.6h-10.9V96h16.5v3.6C184.7,99.5,163.7,99.5,163.7,99.5z">
     </path>
     <path class="st1" d="M210.7,99.5l-4.6-6.6h-8.6v6.6H193V80.9h15.3c1.1,0,2,0.2,2.9,0.4c0.9,0.3,1.6,0.7,2.2,1.3
					c0.6,0.5,1.1,1.2,1.4,1.9c0.3,0.8,0.5,1.6,0.5,2.5c0,3-1.4,4.9-4.3,5.6l4.8,6.9L210.7,99.5L210.7,99.5z M210,88.7
					c0.5-0.4,0.8-1.1,0.8-1.8c0-0.7-0.3-1.3-0.8-1.8c-0.5-0.4-1.3-0.7-2.3-0.7h-10.3v5h10.3C208.8,89.4,209.5,89.1,210,88.7z">
     </path>
     <path class="st1" d="M238.1,84.5c-1.3-0.3-2.8-0.5-4.2-0.5c-2,0-3.4,0.2-4.4,0.5c-1,0.3-1.5,0.8-1.5,1.4c0,0.6,0.5,1.1,1.6,1.3
					c0.4,0.1,0.9,0.2,1.4,0.2c0.5,0.1,1.1,0.1,1.7,0.1c0.6,0,1.2,0.1,1.9,0.1c0.7,0,1.3,0.1,2.1,0.1c1.5,0.1,2.7,0.3,3.8,0.6
					c1.1,0.3,2,0.6,2.7,1c0.7,0.4,1.3,1,1.6,1.6c0.4,0.7,0.5,1.4,0.5,2.3c0,2-0.9,3.6-2.8,4.8c-1.8,1.1-4.6,1.7-8.1,1.7
					c-2.3,0-4.5-0.3-6.5-0.8c-2-0.6-3.9-1.4-5.7-2.7l2.5-3c1.6,1,3.2,1.7,4.8,2.2c1.6,0.5,3.3,0.7,5,0.7c1.9,0,3.3-0.3,4.4-0.7
					c1-0.5,1.5-1.1,1.5-1.9c0-0.4-0.2-0.7-0.4-1c-0.3-0.2-0.7-0.4-1.3-0.5c-0.6-0.1-1.2-0.2-2-0.2c-0.8,0-1.7-0.1-2.7-0.1
					c-1.8-0.1-3.4-0.2-4.8-0.4c-1.4-0.2-2.5-0.6-3.4-1c-0.9-0.4-1.6-1-2-1.7c-0.4-0.7-0.7-1.5-0.7-2.4c0-1.8,0.9-3.3,2.7-4.4
					c1.8-1.1,4.4-1.6,7.8-1.6c4.6,0,8.2,0.9,11,2.7l-2.6,3C240.7,85.4,239.4,84.8,238.1,84.5z">
     </path>
    </g>
   </g>
   <g>
    <path class="st1" d="M103.7,45.3C98.3,43.7,93.6,42,91,39.9l0,0c-0.8-0.7-1.7-1.6-1.7-2.9l0,0c0-1,0.7-1.9,1.4-2.5l0,0
				c0.8-0.6,1.7-1,2.9-1.3l0,0c4.5-1.3,9.4-2.1,13.6-3l0,0c4.2-0.9,7.7-2.1,9.6-4l0,0c1.3-1.2,2-2.7,2.1-5.1l0,0c0,0,0-0.1,0-0.1
				l0,0c0-1.6-1-3.1-3.5-4.8l0,0c-2.4-1.6-6.2-3.1-10.8-4.3l0,0c-9.3-2.5-22.1-4.2-35.6-5.3l0,0c-27-2.2-56.6-2.1-67.2-2.2l0,0
				c0,0,0,0-0.1,0l0,0l0,0c-0.2,0-0.4,0-0.6-0.1l0,0l0,0l0,0c0,0,0,0,0,0l0,0l0,0l0,0c0,0,0,0,0,0l0,0l0,0l0,0h0l0,0h0l0,0
				c0,0,0,0,0,0l0,0h0l0,0h0l0,0c0,0,0,0,0,0l0,0c0,0,0,0,0,0l0,0c0,0,0,0,0,0l0,0l0,0l0,0c-0.5-0.3-0.9-0.8-1-1.4l0,0
				C0,2.1,0.8,1.3,1.8,1.2l0,0C12.9,0.4,26,0,39.9,0l0,0c36.1,0,77.4,2.8,101.9,9.2l0,0c8.2,2.2,14.5,4.7,18.3,8l0,0
				c2.2,1.9,3.6,4.1,3.6,6.7l0,0c0,0.1,0,0.2,0,0.3l0,0c-0.1,3.3-2.2,5.9-4.9,7.6l0,0c-2.7,1.8-6.2,2.8-9.6,3.6l0,0
				c-3.6,0.8-7.3,1.2-10.2,1.4l0,0c27.7,14.3,68.4,17.1,91.5,17l0,0c6.5,0,11.7-0.2,14.7-0.4l0,0c1-0.1,2,0.6,2.1,1.5l0,0
				c0.1,0.9-0.7,1.8-1.7,1.9l0,0c-15.9,1.6-30.6,2.2-44.1,2.2l0,0C152.7,59,120.3,50.2,103.7,45.3L103.7,45.3z">
    </path>
   </g>
  </g>
  <g>
   <path class="st1" d="M245.8,97.3c0.1-0.2,0.2-0.4,0.4-0.6c0.2-0.2,0.4-0.3,0.6-0.4c0.2-0.1,0.5-0.2,0.7-0.2c0.3,0,0.5,0.1,0.7,0.2
			c0.2,0.1,0.4,0.2,0.6,0.4c0.2,0.2,0.3,0.4,0.4,0.6c0.1,0.2,0.2,0.5,0.2,0.8c0,0.3-0.1,0.5-0.2,0.8c-0.1,0.2-0.2,0.4-0.4,0.6
			c-0.2,0.2-0.4,0.3-0.6,0.4c-0.2,0.1-0.5,0.1-0.7,0.1c-0.3,0-0.5,0-0.7-0.1c-0.2-0.1-0.4-0.2-0.6-0.4c-0.2-0.2-0.3-0.4-0.4-0.6
			c-0.1-0.2-0.2-0.5-0.2-0.8C245.7,97.8,245.7,97.6,245.8,97.3z M246.1,98.7c0.1,0.2,0.2,0.4,0.3,0.5c0.1,0.2,0.3,0.3,0.5,0.3
			c0.2,0.1,0.4,0.1,0.6,0.1s0.4,0,0.6-0.1c0.2-0.1,0.3-0.2,0.5-0.3c0.1-0.2,0.3-0.3,0.3-0.5c0.1-0.2,0.1-0.4,0.1-0.7
			c0-0.2,0-0.4-0.1-0.6c-0.1-0.2-0.2-0.4-0.3-0.5c-0.1-0.1-0.3-0.3-0.5-0.3c-0.2-0.1-0.4-0.1-0.6-0.1c-0.2,0-0.4,0-0.6,0.1
			c-0.2,0.1-0.4,0.2-0.5,0.3c-0.1,0.1-0.3,0.3-0.3,0.5c-0.1,0.2-0.1,0.4-0.1,0.6C246,98.3,246.1,98.5,246.1,98.7z M247.7,97
			c0.3,0,0.5,0.1,0.6,0.2c0.1,0.1,0.2,0.3,0.2,0.5c0,0.2-0.1,0.3-0.2,0.4c-0.1,0.1-0.3,0.2-0.4,0.2l0.6,1h-0.4l-0.6-1h-0.4v1h-0.3
			V97L247.7,97L247.7,97L247.7,97z M247.6,98c0.1,0,0.2,0,0.2,0c0.1,0,0.1,0,0.2,0c0.1,0,0.1-0.1,0.1-0.1c0-0.1,0.1-0.1,0.1-0.2
			c0-0.1,0-0.1,0-0.2c0,0-0.1-0.1-0.1-0.1c0,0-0.1,0-0.2-0.1c-0.1,0-0.1,0-0.2,0h-0.5V98L247.6,98L247.6,98z">
   </path>
  </g>
 </g>
</svg>