<?xml version="1.0" encoding="UTF-8"?> <!-- Generator: Adobe Illustrator 24.2.1, SVG Export Plug-In . SVG Version: 6.00 Build 0) --> <svg xmlns="http://www.w3.org/2000/svg" xmlns:xlink="http://www.w3.org/1999/xlink" version="1.1" id="Layer_1" x="0px" y="0px" viewBox="0 0 466.2 50.7" style="enable-background:new 0 0 466.2 50.7;" xml:space="preserve"> <style type="text/css"> .st0{fill:#CC0000;} </style> <g> <g> <path class="st0" d="M146.2,19.4c0-7.3-2.7-7.5-5.6-8l-35.3,0c-3.9,0-6.1,1-6.1,7l0,13.3c-0.1,4.9,1.7,7.1,5.6,7.3l36,0.1 c2.9,0,5.5-2.5,5.5-7.4V19.4z M156.7,34.9c0,9.4-6.1,14.7-15.3,14.7h-37.2c-9,0-15.4-5.7-15.4-14.7V15c0.7-7.9,6.6-14,15.4-14 h37.1c10.1,0,15.3,6.4,15.3,15.4V34.9z"></path> <path class="st0" d="M330.7,39h42.2c2.9,0,5-3.1,5-5.5V17c0-3-2.9-5.6-5.4-5.6h-41.7V39z M320.2,1h52.6c9,0,15.4,5.6,15.4,14.7 v19.9c-0.6,7.9-6.6,14-15.4,14h-52.6V1z"></path> <path class="st0" d="M261.9,27.4l6.6-12.4c0,0,1.8-3.7,3.2-3.7c1.4,0,3.2,3.6,3.2,3.6l6.5,12.4H261.9z M285.4,12.2 c-3.1-6.1-6.9-11.3-13.7-11.3c-7.1,0-10.3,5.1-13.6,11.3l-19.8,37.6h11.9c0,0,3.5-6.6,7.5-14.2h27.9l7.8,14.2h11.5L285.4,12.2z"></path> <path class="st0" d="M201.2,36.2c0,0,1.6,3.2,3,3.2c1.4,0,2.9-3.2,2.9-3.2l18.6-35.2h11.9l-19.8,37.6c-3.3,6.3-6.4,11.4-13.5,11.4 c-6.8,0-10.4-5.1-13.5-11.2L170.9,0.9h11.9L201.2,36.2z"></path> <path class="st0" d="M56.1,39H11.5v-9.7h44.5c2.5,0,4.2,1.3,4.2,4.9C60.3,37.7,58.5,39,56.1,39 M11.5,11.4h43.4 c2.5,0,4.2,1.3,4.2,4.9c0,3.6-1.8,4.9-4.2,4.9H11.5V11.4z M67,25.1c2.7-2.8,2.7-5.9,2.7-9c0-8.7-2.2-15.1-15.2-15.1H1.2L1.1,49.5 h53.5c12.8,0,16.2-6.2,16.2-15C70.7,30.1,69,26.4,67,25.1"></path> <path class="st0" d="M422.1,27.4l6.6-12.4c0,0,1.8-3.7,3.2-3.7c1.4,0,3.2,3.6,3.2,3.6l6.6,12.4H422.1z M445.6,12.2 c-3.1-6.1-6.9-11.3-13.7-11.3c-7.1,0-10.3,5.1-13.6,11.3l-19.8,37.6h11.9c0,0,3.5-6.6,7.5-14.2h27.9l7.8,14.2h11.5L445.6,12.2z"></path> </g> </g> </svg> 