<svg version="1.1" id="Layer_1" xmlns:x="ns_extend;" xmlns:i="ns_ai;" xmlns:graph="ns_graphs;" xmlns="http://www.w3.org/2000/svg" xmlns:xlink="http://www.w3.org/1999/xlink" x="0px" y="0px" viewBox="0 0 444.1 225.2" style="enable-background:new 0 0 444.1 225.2;" xml:space="preserve">
 <style type="text/css">
  .st0{fill:#FFFFFF;}
	.st1{fill:#61B510;}
	.st2{fill:#F7760D;}
 </style>
 <metadata>
  <sfw xmlns="ns_sfw;">
   <slices>
   </slices>
   <sliceSourceBounds bottomLeftOrigin="true" height="225.1" width="444.1" x="0" y="0.1">
   </sliceSourceBounds>
  </sfw>
 </metadata>
 <g transform="matrix(1.9791003 0 0 1.9311234 -49.35706 -75.680378)">
  <g>
   <path class="st0" d="M62.7,56.2c0,0,0.1,0.3,0.3,0.8c0-0.3-0.1-0.6-0.2-0.8C62.8,56.1,62.7,56.1,62.7,56.2">
   </path>
   <path class="st0" d="M62.7,56.2c0,0,0.1,0.3,0.3,0.8c0-0.3-0.1-0.6-0.2-0.8C62.8,56.1,62.7,56.1,62.7,56.2">
   </path>
   <path class="st0" d="M62.7,56.2c0,0,0.1,0.3,0.3,0.8c0-0.3-0.1-0.6-0.2-0.8C62.8,56.1,62.7,56.1,62.7,56.2">
   </path>
  </g>
  <g>
   <path class="st1" d="M213.1,83.8h-32.6c0.7,0.2,1.3,0.6,1.8,1.2c0.5,0.5,0.9,1.1,1.3,1.8c0.3,0.7,0.6,1.4,0.8,2.1
			c0.1,0.5,0.2,1.1,0.2,1.6v18.4c-0.1,1.3-0.6,2.6-1.2,3.7c-0.4,0.6-0.8,1.1-1.3,1.6c-0.5,0.5-1,0.9-1.6,1.2h19.4
			c-0.8-0.2-1.5-0.5-2.1-1.1c-0.5-0.5-1-1.1-1.3-1.7c-0.3-0.7-0.6-1.4-0.7-2.1c-0.1-0.8-0.2-1.5-0.2-2.3v-7.1c1.1,0,2.1,0,3.1,0.1
			c0.9,0.1,1.8,0.3,2.6,0.6c0.8,0.4,1.5,0.9,2,1.6c0.6,0.9,1.1,1.9,1.3,3V91.9c-0.4,1-1,2-1.6,2.8c-0.5,0.6-1.1,1.1-1.9,1.5
			c-0.8,0.3-1.6,0.5-2.4,0.6c-0.9,0.1-1.9,0.1-3.2,0.1v-8.7l5.9,0c0.9,0,1.9,0,2.9,0.1c1,0.1,1.9,0.2,2.9,0.5c0.9,0.2,1.8,0.6,2.7,1
			c0.8,0.4,1.6,1,2.2,1.8c0.2,0.3,0.4,0.5,0.6,0.8c0.2,0.3,0.3,0.6,0.4,1V83.8z">
   </path>
   <path class="st1" d="M216.2,83.8v11.9c0.2-1.2,0.7-2.4,1.5-3.4c0.8-0.9,1.7-1.7,2.7-2.2c1.1-0.6,2.3-1,3.5-1.2
			c1.2-0.2,2.5-0.3,3.7-0.2v20.5c-0.1,0.5-0.2,1-0.3,1.5c-0.2,0.7-0.6,1.4-1,2c-0.4,0.6-1,1.1-1.6,1.6c-0.6,0.4-1.3,0.8-2.1,1h20.7
			c-0.8-0.1-1.6-0.5-2.3-1c-0.7-0.5-1.2-1.1-1.7-1.8c-0.4-0.7-0.8-1.4-1-2.2c-0.2-0.8-0.3-1.6-0.3-2.4V88.8h1c0.9,0,1.7,0.1,2.6,0.3
			c1.1,0.2,2.1,0.5,3.2,0.9c1.1,0.5,2.1,1.2,2.9,2.1c0.9,1,1.5,2.2,1.7,3.6V83.8H216.2z">
   </path>
   <path class="st1" d="M161,113.7c-0.5,0.5-1.1,0.8-1.7,1.1c-0.6,0.2-0.9,0.4-1.1,0.5h22.3c-0.4-0.1-0.7-0.2-1-0.4
			c-0.3-0.2-0.6-0.4-0.9-0.6c-0.8-0.6-1.5-1.2-2.1-2c-0.6-0.7-1.1-1.5-1.5-2.3c-0.5-0.9-0.9-1.8-1.2-2.7l-1.6-4.8l-2.2-6.5
			l-4.2-12.3h-18.5c0.6,0.1,1.1,0.4,1.7,0.7c0.5,0.3,0.9,0.6,1.3,1c0.4,0.5,0.8,1,0.9,1.7c0.1,0.6,0.1,1.2,0,1.7
			c-0.1,0.6-0.3,1.1-0.5,1.7c-0.5,1.4-0.9,2.5-1.2,3.3c-0.1,0.2-0.2,0.5-0.3,0.7l-3.3,8.6c-0.2,0.5-0.5,1.2-0.8,2.2
			c-0.4,1-0.8,2-1.2,3c-0.5,1.1-0.9,2-1.5,3c-0.4,0.7-0.9,1.4-1.4,2c-0.4,0.4-0.9,0.7-1.4,1c-0.5,0.3-0.8,0.6-1.1,0.7
			c-0.2,0.1-0.3,0.2-0.5,0.3h16.6c-1.2-0.2-2.2-0.9-3-1.9c-0.7-1-1.1-2.1-1.1-3.3c0-0.4,0.1-0.7,0.2-1.1c0.1-0.5,0.3-1,0.4-1.4
			c0.2-0.5,0.3-1,0.5-1.4c0.2-0.4,0.3-0.8,0.4-1h9.3c0.1,0.2,0.2,0.5,0.3,0.9c0.1,0.4,0.3,0.8,0.4,1.2c0.1,0.4,0.3,0.8,0.4,1.1
			c0.1,0.4,0.2,0.6,0.3,0.8c0.3,0.9,0.2,1.8-0.2,2.7C162.1,112.6,161.6,113.2,161,113.7 M152.9,101.4l3.3-10.2l3.5,10.2H152.9z">
   </path>
   <path class="st1" d="M127.8,99.6c0.8-0.4,1.5-0.9,2.2-1.5l0.2-0.2c0.3-0.3,0.6-0.6,0.8-1c0,0,0.1-0.1,0.1-0.1
			c1.3-1.6,1.9-3.6,1.8-5.7h0c-0.1-0.9-0.3-1.8-0.7-2.6c-0.2-0.5-0.5-1-0.8-1.4c-0.5-0.7-1.2-1.3-2-1.8c-0.8-0.4-1.7-0.8-2.6-1
			c-0.9-0.2-1.9-0.4-2.8-0.5c-1-0.1-1.8-0.1-2.7-0.1H99.7c0.7,0.2,1.4,0.5,2,1c0.6,0.5,1.1,1.1,1.4,1.8c0.5,1,0.7,2.1,0.7,3.3
			c0,0.7,0,1.4,0,2.1v16.2c0,0.7-0.1,1.4-0.3,2.1c-0.2,0.7-0.4,1.4-0.7,2.1c-0.3,0.7-0.8,1.3-1.3,1.8c-0.5,0.5-1.1,1-1.8,1.3h18.7
			c-0.4-0.1-0.8-0.3-1.2-0.5c-0.5-0.2-0.9-0.5-1.2-0.9c-0.4-0.5-0.8-1-1-1.6c-0.3-0.8-0.5-1.7-0.6-2.6c-0.1-1.4-0.2-2.9-0.2-4.3
			c0-1.5,0-2.9,0-4.3h1.3c0.6,0,1.1,0,1.7,0c4.9,11.5,6.7,14.2,11.6,14.2h10.8C135.9,115.4,131.1,106.7,127.8,99.6 M113.6,96.8v-8.4
			c1,0,1.9,0,2.9-0.1c0.9,0,1.7,0,2.6,0.3c0.7,0.2,1.4,0.7,1.9,1.3c0.5,0.9,0.8,1.9,0.7,2.9c0.1,0.9-0.2,1.9-0.8,2.6
			c-0.5,0.6-1.2,1-2,1.2c-0.9,0.2-1.7,0.3-2.6,0.3C115.3,96.8,114.4,96.8,113.6,96.8">
   </path>
  </g>
  <path class="st2" d="M105.8,47.2c-2.8,1.3-4.7,4-4.9,7.2l0,0c-2.3-1.6-5.3-2-7.9-0.9c0.1,0.3,0.2,0.7,0.4,1c1,2.2,2.9,3.8,5.2,4.5
		c-1.3,1.9-2.9,3.6-4.9,4.9c-0.8,0.5-1.8,0.9-2.8,0.9c-2.6,0.3-5.1-1-6.3-3.3c-1.6,2.8-5,4-8,2.7c-0.4-0.2-0.8-0.5-1.1-0.7
		c-3.1-2.1-5.3-5.3-6.4-8.9c0,0,0.1,0,0.1,0c2.6-0.3,4.9-1.8,6.2-4c0.1-0.2,0.3-0.5,0.4-0.7c-2.1-1.6-4.8-2-7.3-1.3
		c-0.3,0.1-0.5,0.2-0.8,0.3c0.1-2.9-2.1-7.3-4.8-8.9c-0.3-0.2-0.7-0.4-1.1-0.5l-0.2-0.1l-0.2,0.2c-0.2,0.3-0.4,0.6-0.6,0.9
		c-1.6,2.7-1.2,7.6,0.3,10.1c-0.3,0-0.5,0.1-0.8,0.1c-2.3,0.5-4.2,1.9-5.4,3.9c-0.1,0.2-0.3,0.5-0.4,0.7c0.2,0.2,0.5,0.3,0.7,0.5
		c2.2,1.3,5,1.5,7.4,0.5c0,0,0.1,0,0.1-0.1c0.8,3.4,0.5,6.9-0.9,10.1c0,0,0,0,0,0c0,0.1-0.1,0.2-0.1,0.2c-0.1,0.2-0.2,0.4-0.3,0.6
		c-0.2,0.5-0.5,1-0.8,1.4c-2,2.5-5.6,3.1-8.4,1.4c0,2.6-1.6,4.9-4,5.9c-0.6,0.2-1.2,0.4-1.8,0.4c-2.6,0-5.2-0.7-7.5-2
		c1.7-1.7,2.5-4.1,2.3-6.4c0-0.4-0.1-1-0.2-1.4c-2.9,0.4-5.3,2.9-6.5,4.3h0c-1.6-1.4-4.5-3.8-7.7-3.6c-0.7,0.1-1.5,0.3-2.1,0.6
		c3.6,2.7,7,5.6,10.2,8.7c2.3,2.2,4.4,4.5,6.5,6.8c2.9,3.3,7.8,9.9,7.8,9.9c1.3,1.2,3,1.8,4.7,1.8c0.2,0,0.4-0.2,0.4-0.4
		c0-0.2-0.3-0.3-0.4-0.3c-1.2-0.4-2.1-1.4-2.4-2.6c-0.9-2.9,7.7-8.1,20.4-11.3c12.7-3.2,22.8-2.8,23.4,0.2c0.3,1.2,0,2.5-0.8,3.5
		c-0.1,0.1-0.3,0.4-0.2,0.5c0.1,0.2,0.4,0.3,0.6,0.2c1.6-0.8,2.7-2.2,3.3-3.8c0,0,1.4-8.2,2.3-12.5c0.7-3.1,1.5-6.1,2.4-9.1
		c1.3-4.2,2.9-8.4,4.8-12.5C107.2,46.7,106.5,46.9,105.8,47.2">
  </path>
  <path class="st1" d="M61,86.5c6.8-2.9,14-4.9,21.4-5.9c0,0,14.4,1.4,14.4,18.3s-12,26.5-28.4,26.5c-16.3,0-25-7.2-25-14.9
		c0-7.7,5.5-8.9,8.1-8.9c2.6,0,7.2,2.3,7.2,8.3c0,0-4.6-1.1-4.6,2.9c0,4,5.5,6.5,12.9,6.5c7.5,0,18.1-3.3,18.1-17.9
		c0-15.6-7.2-16.3-12.2-16.3v26.7c0.1,1.4,1.3,2.4,2.6,2.4c0,0-2.6,2.2-9.2,2.2c-6.5,0-8.4-2.1-8.4-2.1s3.1,0,3.1-2.7
		C61.1,109,61,86.5,61,86.5">
  </path>
  <path class="st0" d="M242.1,142.4c-0.2-0.6-0.5-1.2-0.8-1.7c-0.5-0.9-1.3-1.8-2.2-2.4l0,0c-0.1-0.1-0.2-0.2-0.3-0.2l0,0
		c-0.5-0.3-1-0.6-1.5-0.9c-3.7-2-7.5-2-10.6-2.7c-0.5-0.1-1-0.3-1.4-0.4c-0.2-0.1-0.3-0.1-0.5-0.2c-0.6-0.3-1.3-0.7-1.8-1.1
		c-0.5-0.4-0.8-1-1-1.6c-0.2-0.5-0.1-1,0.2-1.5c0.4-0.6,0.9-1.1,1.6-1.5c0.7-0.4,1.4-0.7,2.1-0.9c0.8-0.2,1.7-0.3,2.5-0.3
		c0.9,0,1.7,0.1,2.6,0.4c1,0.2,1.9,0.6,2.8,0.9c0.7,0.3,1.3,0.7,1.8,1.1c0.3,0.2,0.5,0.5,0.8,0.7c0.3,0.3,0.5,0.5,0.8,0.8
		c0.3,0.3,0.6,0.6,1,1c0.4,0.4,0.8,0.8,1.3,1.3v-11.5c0,0-0.9,2.2-4.4,2.2c-1,0-2-0.1-2.9-0.2c-1-0.2-2-0.3-3-0.5
		c-1.1-0.2-2.3-0.2-3.4-0.2c-1.6,0-3.2,0.2-4.7,0.6c-1.4,0.4-2.8,1-4,1.9c-2.5,1.8-4,4.8-3.9,7.9c-0.1,1.4,0.3,2.8,0.9,4
		c0.5,0.8,1.1,1.5,1.8,2.2l0,0c0,0,0,0,0.1,0.1c0.1,0.1,0.2,0.1,0.2,0.2c0.1,0.1,0.2,0.2,0.4,0.3c2.6,2,6.2,2.9,10.3,3.9
		c0.1,0,0.2,0,0.2,0.1l0,0c0.4,0.1,0.9,0.2,1.3,0.3c0.8,0.2,1.6,0.5,2.3,0.9c0.6,0.3,1.1,0.7,1.5,1.2c0.4,0.4,0.5,1,0.3,1.5
		c-0.2,0.9-0.8,1.7-1.6,2.1c-0.8,0.4-1.7,0.7-2.7,0.7c-1,0.1-2,0-3-0.2c-0.9-0.2-1.8-0.4-2.6-0.7c-1.7-0.6-3.3-1.4-4.8-2.4
		c-1-0.7-2-1.5-2.9-2.3c-1-0.9-1.8-1.9-2.5-3v13.8c1.5-0.9,3.2-1.4,4.9-1.5c0,0,0,0,0,0c0.6-0.1,1.1-0.1,1.7-0.2
		c0.9,0,1.7,0.1,2.6,0.2c0.9,0.1,1.7,0.3,2.5,0.6c0.9,0.2,1.8,0.4,2.7,0.5c0.9,0.1,1.9,0.2,2.8,0.2c1.6,0,3.1-0.2,4.7-0.5
		c1.5-0.3,2.9-0.9,4.2-1.8c1.3-0.8,2.3-1.9,3.1-3.2c0.8-1.5,1.2-3.2,1.1-4.9C242.6,144.2,242.4,143.3,242.1,142.4">
  </path>
  <path class="st0" d="M169.2,130.1c0-0.5,0-1,0.1-1.6c0.1-0.6,0.2-1.1,0.3-1.7c0.2-0.5,0.4-1.1,0.6-1.5c0.3-0.5,0.6-0.9,1.1-1.2
		c0.5-0.4,1-0.6,1.6-0.7h-14.5c0.8,0,1.6,0.3,2.2,0.8c0.6,0.5,1,1.1,1.3,1.8c0.3,0.7,0.6,1.5,0.7,2.3c0.1,0.8,0.2,1.5,0.2,2.3v14.1
		l-13.6-21.2h-16.4c0.8,0,1.6,0.3,2.2,0.8c0.6,0.5,1,1.1,1.3,1.8c0.3,0.7,0.5,1.5,0.6,2.3c0.1,0.7,0.2,1.5,0.2,2.2
		c0,0.3,0,0.8,0,1.4v14.9c0,0.7,0,1.3-0.1,2c0,0.5-0.1,1-0.1,1.5c0,0.5-0.2,1-0.3,1.5c-0.2,0.5-0.4,0.9-0.7,1.4
		c-0.3,0.4-0.7,0.8-1.1,1.1c-0.1,0.1-0.2,0.1-0.4,0.2c-0.2,0.1-0.3,0.1-0.5,0.2c-0.2,0.1-0.3,0.1-0.5,0.2c-0.1,0-0.2,0.1-0.2,0.1
		h14.1c-0.4-0.2-0.7-0.4-1-0.6c-0.3-0.2-0.6-0.4-0.8-0.6c-0.2-0.2-0.5-0.4-0.7-0.7c-0.6-0.8-1-1.6-1.2-2.6c-0.2-0.9-0.3-1.9-0.3-2.9
		v-13.9l13.3,21.2H173c-0.6-0.1-1.1-0.3-1.6-0.7c-0.4-0.3-0.8-0.7-1.1-1.2c-0.3-0.5-0.5-1-0.6-1.5c-0.2-0.6-0.3-1.1-0.3-1.7
		c-0.1-0.6-0.1-1.1-0.1-1.6L169.2,130.1L169.2,130.1z">
  </path>
  <path class="st0" d="M126,142.3v-12.5c0-0.6,0.1-1.1,0.2-1.7c0.1-0.7,0.3-1.4,0.7-2c0.3-0.6,0.8-1.2,1.3-1.6
		c0.6-0.5,1.3-0.9,2.1-1.1h-18.8c0.8,0.2,1.5,0.6,2.1,1.1c0.6,0.6,1.1,1.3,1.4,2.1c0.5,1.2,0.7,2.5,0.7,3.9V147c0,0.5,0,1.2,0,1.9
		c0,1-0.2,2.1-0.7,3c-0.3,0.7-0.8,1.3-1.4,1.8c-0.1,0.1-0.2,0.2-0.3,0.2c-4.6-1.9-9.4-6.5-13-12.1c-2.1-3.3-4.5-7.6-6.4-11.4
		c1.9-2.3,3.6-4.5,5.1-6.1c2.8-2.7,6.3-4.6,10.1-5.4H93.6c0,0,1.4,2-0.6,4.5l-10.2,12.3v-10.1c-0.1,0-0.2,0.1-0.3,0.1
		c-0.4,0.2-0.9,0.3-1.4,0.5c-1.4,0.5-2.8,0.9-4.3,1.2c-0.5,0.1-1,0.2-1.5,0.3c-1.1,0.2-2.2,0.3-3.3,0.4v18.5l-0.1,1.4
		c0,0.4-0.1,0.8-0.1,1.2c-0.1,0.9-0.4,1.7-0.7,2.5c-0.3,0.8-0.8,1.5-1.4,2c-0.7,0.6-1.5,1-2.4,1.1h19.7c-0.8-0.2-1.5-0.6-2.1-1.2
		c-0.6-0.7-1-1.4-1.3-2.3c-0.3-1-0.5-1.9-0.6-2.9c-0.1-1.1-0.2-2.1-0.2-3.1c0-0.2,0-0.4,0-0.6c0.8-1,2-2.6,3.5-4.5
		c0.8,1.3,1.6,2.7,2.5,4c4.1,6.5,7.3,10.6,12.5,10.6c5.2,0,29.1,0,29.1,0c-0.8-0.3-1.5-0.8-2.1-1.3c-0.6-0.6-1.1-1.4-1.4-2.2
		c-0.4-1-0.6-2-0.6-3L126,142.3L126,142.3z">
  </path>
  <path class="st0" d="M194.9,139.2c0.5,0.5,0.9,1.1,1,1.8c0.2,0.7,0.3,1.5,0.2,2.3c0,0.8,0,1.7,0,2.5c0,0.4,0,0.9,0,1.5
		c0,0.5,0,1.1-0.2,1.6c-0.2,0.5-0.6,1-1,1.3c-0.7,0.4-1.5,0.6-2.3,0.5c-1,0-2.1-0.2-2.9-0.8c-0.7-0.5-1.3-1.2-1.8-2
		c-0.4-0.8-0.7-1.7-0.9-2.6v0c-1-4.1-1-8.3-0.1-12.4c0.2-0.9,0.5-1.8,1-2.6c0.4-0.8,1.1-1.4,1.8-1.9c0.8-0.5,1.8-0.8,2.8-0.8
		c0.5,0,1,0,1.5,0.1c0.5,0.1,1,0.2,1.5,0.3c2.3,0.5,4.6,1.4,6.6,2.7c2.3,1.5,4.1,3,4.9,5.2v-14.3c-0.4,1.3-1.4,2.4-2.7,3
		c-0.4,0.1-0.8,0.2-1.2,0.3c-0.1,0-0.2,0-0.3,0c-0.1,0-0.1,0-0.2,0c-0.8,0-1.6-0.1-2.3-0.2c-0.8-0.1-1.7-0.3-2.5-0.6
		c-0.8-0.3-1.6-0.5-2.3-0.7c-0.7-0.2-1.5-0.3-2.3-0.4c-0.8-0.1-1.6-0.1-2.3-0.1c-1.6,0-3.2,0.2-4.7,0.5c-1.5,0.3-2.9,0.9-4.2,1.6
		c-1.3,0.7-2.5,1.6-3.5,2.7c-0.8,0.9-1.5,1.9-2.1,2.9l0,0c-1.8,4.2-2.3,8.9-1.4,13.4c0.2,0.9,0.5,1.8,0.9,2.7
		c0.2,0.4,0.4,0.9,0.6,1.3c0.8,1.6,1.9,2.9,3.3,4.1c1.4,1.1,2.9,2,4.6,2.5c1.9,0.6,3.9,0.8,5.9,0.8c0.9,0,1.8-0.2,2.7-0.4
		c0.9-0.2,1.8-0.5,2.8-0.8c0.9-0.3,1.9-0.6,2.8-0.8c0.9-0.3,1.8-0.4,2.8-0.5c0.9,0,1.8,0.1,2.7,0.3c0.9,0.3,1.8,0.8,2.5,1.4v-9.5
		c0-0.7,0.1-1.4,0.2-2.1c0.1-0.7,0.3-1.4,0.6-2.1c0.3-0.6,0.7-1.2,1.2-1.7c0.5-0.5,1.2-0.9,1.9-1.1h-17.6
		C193.3,138.3,194.2,138.6,194.9,139.2">
  </path>
 </g>
</svg>