<svg width="511" height="70" viewBox="0 0 511 70" fill="none" xmlns="http://www.w3.org/2000/svg">
<g clip-path="url(#clip0_225_213)">
<path d="M123.784 27.8043C119.765 27.8043 80.7139 27.7893 72.7817 27.7893C71.0809 38.9366 76.6575 43.9796 84.5671 43.9796C88.8718 43.9796 115.98 43.9645 115.98 43.9645L115.001 51.9731H69.8166L67.5438 70.5118C67.5438 70.5118 116.732 70.5269 118.727 70.5118C120.367 70.3914 131.882 70.0828 135.795 60.6667C137.067 57.6108 138.188 46.6516 138.504 44.3559C140.318 30.9957 131.069 27.8119 123.784 27.8119V27.8043Z" fill="#F5FBFF"/>
<path d="M253.28 70.5118L276.504 70.4968L281.75 27.7968L258.533 27.7817L253.28 70.5118Z" fill="#F5FBFF"/>
<path d="M66.0913 43.9796L68.0781 27.7893H6.00555L0.752563 70.5118H62.8327L65.1205 51.9731H26.2499L27.2282 43.9796H66.0913Z" fill="#F5FBFF"/>
<path d="M268.377 0.752716H217.736L215.335 20.3301H282.645C282.645 20.3301 282.728 19.6226 283.022 17.3194C284.67 4.471 276.384 0.752716 268.377 0.752716Z" fill="#F5FBFF"/>
<path d="M145.059 27.7893L139.814 70.5118H163.023L166.297 43.9796H195.452C203.715 43.9796 208.163 39.5312 208.991 33.5624C209.405 30.5516 209.706 27.7893 209.706 27.7893H145.059Z" fill="#F5FBFF"/>
<path d="M211.068 16.6871C212.099 8.33228 208.547 0.752716 195.632 0.752716C195.632 0.752716 98.4221 0.752716 92.8756 0.752716C82.347 0.737662 75.3857 6.28497 74.3998 14.5796C74.0385 17.6355 73.6924 20.3301 73.6924 20.3301H210.609C210.609 20.3301 210.865 18.3054 211.068 16.6871Z" fill="#F5FBFF"/>
<path d="M209.171 70.5118L232.388 70.4968L237.641 27.7968L214.409 27.7817L209.171 70.5118Z" fill="#F5FBFF"/>
<path d="M71.397 0.752716H9.31689L6.91617 20.3301H69.0038L71.397 0.752716Z" fill="#F5FBFF"/>
<path d="M354.968 0.752686H303.627L295.176 70.4968C295.176 70.4968 344.748 70.5118 346.758 70.4968C348.406 70.3763 359.792 70.2634 363.803 60.8097C365.105 57.7387 366.106 49.1882 366.437 46.8774C367.25 41.2699 364.255 38.0258 361.267 36.1366C360.605 35.7226 360.763 34.714 361.516 34.5183C364.669 33.7054 367.642 32.0269 368.454 28.4516C369.026 25.9376 369.576 20.4129 369.967 17.3419C371.743 4.44839 363.081 0.760212 354.968 0.760212V0.752686ZM352.981 44.6946L352.018 52.4323C351.604 56.0376 348.827 58.2957 344.989 58.5516H310.461L312.448 41.8796H350.874C353.455 41.8796 352.989 44.6946 352.989 44.6946H352.981ZM356.767 15.5882L355.804 23.3258C355.39 26.9312 352.613 29.1892 348.774 29.4452H314.246L316.233 12.7731H354.66C357.467 12.7731 356.774 15.5882 356.774 15.5882H356.767Z" fill="#20F4CA"/>
<path d="M439.919 12.7731L441.341 0.782793H380.247L371.668 70.4968H432.77L434.192 58.4312L387.156 58.5892L389.436 41.8796H429.022L430.467 29.6108H390.949L393.199 12.7731H439.919Z" fill="#20F4CA"/>
<path d="M511.309 0.782793H448.709L447.272 12.8484H471.663L464.521 70.4968H478.346L485.563 12.8484H509.886L511.309 0.782793Z" fill="#20F4CA"/>
</g>
<defs>
<clipPath id="clip0_225_213">
<rect width="511" height="70" fill="white"/>
</clipPath>
</defs>
</svg>
