<svg version="1.1" id="Layer_1" xmlns:x="ns_extend;" xmlns:i="ns_ai;" xmlns:graph="ns_graphs;" xmlns="http://www.w3.org/2000/svg" xmlns:xlink="http://www.w3.org/1999/xlink" x="0px" y="0px" viewBox="0 0 284.5 50" style="enable-background:new 0 0 284.5 50;" xml:space="preserve">
 <style type="text/css">
  .st0{fill:#FFFFFF;}
	.st1{fill:#1493FF;}
 </style>
 <metadata>
  <sfw xmlns="ns_sfw;">
   <slices>
   </slices>
   <sliceSourceBounds bottomLeftOrigin="true" height="50" width="284.5" x="-142.2" y="0">
   </sliceSourceBounds>
  </sfw>
 </metadata>
 <g>
  <path class="st0" d="M67.6,41.2h5.5c0.2,0,0.4-0.2,0.4-0.4V28h9.9c0.2,0,0.3-0.1,0.4-0.3l1.8-4.8c0.1-0.2,0-0.5-0.3-0.5
		c-0.1,0-0.1,0-0.1,0H73.5v-8h14.9c0.2,0,0.3-0.1,0.4-0.3l1.8-4.8c0.1-0.2,0-0.5-0.3-0.5c-0.1,0-0.1,0-0.1,0H67.6
		c-0.2,0-0.4,0.2-0.4,0.4v31.5C67.1,41,67.3,41.2,67.6,41.2z">
  </path>
  <path class="st0" d="M103,9.1L91.4,40.6c-0.1,0.2,0,0.5,0.3,0.5c0.1,0,0.1,0,0.1,0h5.8c0.2,0,0.3-0.1,0.4-0.3l1.9-5.4h11.7l1.8,5.4
		c0.1,0.2,0.2,0.3,0.4,0.3h5.7c0.2,0,0.4-0.2,0.4-0.4c0-0.1,0-0.1,0-0.1L108.3,9.1c-0.1-0.2-0.2-0.3-0.4-0.3h-4.4
		C103.3,8.8,103.1,8.9,103,9.1z M101.7,30.1l4.2-11.8l4,11.8H101.7z">
  </path>
  <path class="st0" d="M146.2,28.6L133.3,9c-0.1-0.1-0.2-0.2-0.4-0.2h-5c-0.2,0-0.4,0.2-0.4,0.4v31.5c0,0.2,0.2,0.4,0.4,0.4h5.5
		c0.2,0,0.4-0.2,0.4-0.4V21.3L146.8,41c0.1,0.1,0.2,0.2,0.4,0.2h5c0.2,0,0.4-0.2,0.4-0.4V9.3c0-0.2-0.2-0.4-0.4-0.4h-5.5
		c-0.2,0-0.4,0.2-0.4,0.4V28.6z">
  </path>
  <path class="st0" d="M214.4,29.9c0,3.7-2.2,6-5.7,6c-3.5,0-5.7-2.2-5.7-6V9.3c0-0.2-0.2-0.4-0.4-0.4h-5.5c-0.2,0-0.4,0.2-0.4,0.4
		v20.8c0,6.9,5.4,11.4,12.1,11.4c6.7,0,12.1-4.5,12.1-11.4V9.3c0-0.2-0.2-0.4-0.4-0.4h-5.5c-0.2,0-0.4,0.2-0.4,0.4L214.4,29.9z">
  </path>
  <path class="st0" d="M252.9,14.2l1.8-4.8c0.1-0.2,0-0.5-0.3-0.5c-0.1,0-0.1,0-0.1,0h-22.6c-0.2,0-0.4,0.2-0.4,0.4v31.5
		c0,0.2,0.2,0.4,0.4,0.4h22.6c0.2,0,0.4-0.2,0.4-0.4c0-0.1,0-0.1,0-0.1l-1.8-4.8c-0.1-0.2-0.2-0.3-0.4-0.3h-14.9v-7.9h12
		c0.2,0,0.4-0.2,0.4-0.4v-4.8c0-0.2-0.2-0.4-0.4-0.4h-12v-7.6h14.9C252.7,14.5,252.9,14.3,252.9,14.2z">
  </path>
  <path class="st0" d="M282.3,35.5h-13.6V9.3c0-0.2-0.2-0.4-0.4-0.4c0,0,0,0,0,0h-5.5c-0.2,0-0.4,0.2-0.4,0.4v31.5
		c0,0.2,0.2,0.4,0.4,0.4H284c0.2,0,0.4-0.2,0.4-0.4c0-0.1,0-0.1,0-0.1l-1.8-4.8C282.7,35.7,282.5,35.5,282.3,35.5z">
  </path>
  <path class="st0" d="M184,11.9c-2.2-2.1-5.3-3.1-8.7-3.1h-13c-0.2,0-0.4,0.2-0.4,0.4c0,0,0,0.1,0,0.1l1,4.8
		c0.1,0.2,0.2,0.3,0.4,0.3h11.5c2.2,0,3.7,0.7,4.8,2c1.2,1.4,1.4,3.5,1.4,8.4c0,4.9-0.2,7.2-1.4,8.7c-1.1,1.3-2.6,2-4.8,2h-4.8V18.7
		c0-0.2-0.2-0.4-0.4-0.4h-5.5c-0.2,0-0.4,0.2-0.4,0.4v22c0,0.2,0.2,0.4,0.4,0.4h11.4c3.4,0,6.5-1,8.7-3.1c3.7-3.6,3.3-8.4,3.3-13.2
		C187.3,20,187.7,15.5,184,11.9z">
  </path>
  <path class="st1" d="M21,8.3c1-2.1,2.1-4,3.4-5.9C24.9,1.7,25.5,1,26,0.3C26.1,0.2,26,0,25.8,0c-0.1,0-0.3,0-0.4,0
		C19.6,0,14,1,8.8,2.7c-2.7,0.9-5.3,2-7.8,3.4C0.4,6.5,0,7.2,0,8c0.1,2.8,0.4,5.6,0.9,8.3c0.5,2.5,1.2,5,2,7.4
		c1,2.9,2.3,5.6,3.9,8.2c2.8,4.8,6.4,9.1,10.7,12.7c0.7,0.6,1.5,1.2,2.2,1.8c0.2,0.1,0.4-0.1,0.3-0.2c-0.3-0.8-0.6-1.6-0.9-2.4
		c-1.3-3.8-2.1-8-2.4-12.2c0-0.2-0.1-0.4-0.2-0.5c-1.1-1.4-2-2.9-2.9-4.5c0.8-0.4,1.6-0.8,2.5-1.1c0.4-0.1,0.6-0.5,0.6-0.9
		c0.2-2.8,0.6-5.7,1.3-8.3c0-0.1-0.1-0.3-0.2-0.3c-2.6,0.6-5.2,1.5-7.5,2.6c-0.7-2.2-1.2-4.5-1.4-6.8c3.5-1.5,7.3-2.5,11.2-3
		C20.5,8.8,20.8,8.6,21,8.3z">
  </path>
  <path class="st1" d="M49.8,6.1c-2.5-1.3-5-2.4-7.8-3.4c-3.6-1.2-7.4-2-11.3-2.4c-0.3,0-0.6,0.1-0.8,0.3c-2.1,2.1-4,4.7-5.5,7.7
		c-0.1,0.1,0,0.3,0.2,0.3c0.3,0,0.5,0,0.8,0c5.8,0,11.4,1.2,16.5,3.3c-0.3,2.3-0.8,4.6-1.4,6.8c-0.8,2.8-2,5.4-3.3,7.9
		c-2.9,5.2-6.9,9.8-11.7,13.4c-1.7-1.3-3.2-2.6-4.7-4.1c-0.1-0.1-0.4,0-0.3,0.2c0.4,2.2,0.9,4.3,1.5,6.3c0.9,2.8,2,5.3,3.4,7.7
		c0.1,0.1,0.2,0.1,0.3,0.1c2.7-1.6,5.3-3.4,7.7-5.5c4.2-3.6,7.8-7.9,10.7-12.7c1.5-2.6,2.8-5.3,3.9-8.2c0.9-2.4,1.6-4.9,2-7.4
		c0.5-2.7,0.8-5.5,0.9-8.3C50.9,7.2,50.5,6.4,49.8,6.1z">
  </path>
 </g>
</svg>