<svg width="72" height="22" viewBox="0 0 72 22" fill="none" xmlns="http://www.w3.org/2000/svg">
<path d="M21.4391 2.93429H30.5782V7.05718H25.7911V8.9812H29.9369V13.1041H25.7911V18.9678H21.4391V2.93429ZM32.5838 2.93429H36.9358V14.8449H41.7229V18.9678H32.5838V2.93429ZM43.5496 2.93429H47.9015V18.9678H43.5496V2.93429ZM50.5114 2.93429H59.6505V7.05718H54.8634V8.9812H59.0092V13.1041H54.8634V18.9678H50.5114V2.93429ZM61.6561 2.93429H70.7952V7.05718H66.0081V8.9812H70.1539V13.1041H66.0081V18.9678H61.6561V2.93429Z" fill="white"/>
<path d="M14.696 6.47473H0.397188C0.178735 6.47473 0 6.29263 0 6.07006V0.404671C0 0.182102 0.178735 0 0.397188 0H14.696C14.9144 0 15.0932 0.182102 15.0932 0.404671V6.07006C15.0932 6.29263 14.9144 6.47473 14.696 6.47473Z" fill="white"/>
<path d="M10.7329 8.09375H1.59754H0.807138C0.366259 8.09375 0.00878906 8.45795 0.00878906 8.90714V9.71243V14.5685H10.7329C10.9513 14.5685 11.1301 14.3864 11.1301 14.1638V8.49842C11.1301 8.27585 10.9513 8.09375 10.7329 8.09375Z" fill="url(#paint0_linear_2076_1741)"/>
<path d="M6.11755 14.3214L0.51719 8.61552C0.362287 8.4577 0.425837 8.20276 0.608544 8.12183C0.26299 8.21085 0.00878906 8.5265 0.00878906 8.90689V9.71623V15.3533C0.00878906 15.8915 0.219299 16.4054 0.588684 16.7858L6.02619 21.9454C6.15329 22.0668 6.35983 21.9737 6.35983 21.7956V14.9203C6.3638 14.6937 6.27642 14.4792 6.11755 14.3214Z" fill="white"/>
<defs>
<linearGradient id="paint0_linear_2076_1741" x1="0.00878906" y1="11.3311" x2="11.1301" y2="11.3311" gradientUnits="userSpaceOnUse">
<stop stop-color="#828296"/>
<stop offset="1" stop-color="white"/>
</linearGradient>
</defs>
</svg>
