<?xml version="1.0" encoding="UTF-8"?> <svg xmlns="http://www.w3.org/2000/svg" width="205.799" height="124.474" viewBox="0 0 205.799 124.474"><g transform="translate(-117 -287)"><g transform="translate(117 287)"><g transform="translate(44.696)"><path d="M114.253,37.318a56.382,56.382,0,0,1,50.5-31.405c22.118,0,42.708,13.781,51.485,33.49a12.8,12.8,0,0,1,3.778,4.724,19.736,19.736,0,0,1,3.163-3.347A62.356,62.356,0,0,0,164.752,0c-26.782,0-47.395,15.37-57.022,37.318Z" transform="translate(-102.969)" fill="#6a46f3" fill-rule="evenodd"></path><path d="M215.2,147.49a56.4,56.4,0,0,1-56.058,50.852c-29.211,0-51.614-20.824-55.69-47.9a13.946,13.946,0,0,1-1.855.119,8.788,8.788,0,0,1-4.237-1.06,62.235,62.235,0,0,0,123.477.712,12.677,12.677,0,0,1-5.637-2.718Z" transform="translate(-97.36 -79.781)" fill="#6a46f3" fill-rule="evenodd"></path></g><g transform="translate(0 27.728)"><path d="M86.8,107.358a3.881,3.881,0,0,1,.115-.849l4.614-17.656H83.782l-.675,2.663h-.055A5.707,5.707,0,0,0,77.9,88.38c-6.95,0-12.886,8.139-12.886,17.431,0,5.178,3.64,8.957,7.515,8.957a7.632,7.632,0,0,0,6.67-3.8h.05A4.884,4.884,0,0,0,84.1,114.85a5.962,5.962,0,0,0,4.063-1.148l1.428-5.472a4.081,4.081,0,0,1-1.51.248c-.863,0-1.276-.409-1.276-1.125Zm-11.518,1.235c-1.542,0-2.4-1.506-2.4-4.168,0-4.774,2.548-9.87,5.789-9.87,1.432,0,2.442,1.565,2.442,4.1C81.119,103.015,78.507,108.593,75.284,108.593Z" transform="translate(-35.166 -75.535)" fill="#fff" fill-rule="evenodd"></path><path d="M25.543,60.4,21.59,75.692H14.236l4-15.292H11.077a8.286,8.286,0,0,1-7.566,4.122L2.139,69.747a11.515,11.515,0,0,0,1.327.064,11,11,0,0,0,4.522-1.056L0,99.3H8.08L12.56,82.11h7.354L15.384,99.3h8.08L33.623,60.4Z" transform="translate(0 -60.4)" fill="#fff" fill-rule="evenodd"></path><path d="M181.338,75.885h-.05a5.782,5.782,0,0,0-5.091-2.63c-6.955,0-12.886,8.139-12.886,17.431,0,5.178,3.64,8.957,7.515,8.957a7.751,7.751,0,0,0,6.427-3.517h.051l-.813,3.181h6.657l10.159-38.9h-7.919l-4.054,15.475Zm-7.754,17.583c-1.542,0-2.392-1.506-2.392-4.168,0-4.774,2.548-9.87,5.789-9.87,1.432,0,2.442,1.565,2.442,4.1C179.424,87.89,176.811,93.468,173.584,93.468Z" transform="translate(-88.338 -60.405)" fill="#fff" fill-rule="evenodd"></path><path d="M140.766,88.5c-2.429,0-4.793,2.167-5.936,4.012h-.069l.9-3.585H127.93L121.26,114.5h7.928l3.163-12.055c.84-3.259,2.837-6.762,5.917-6.762a4.625,4.625,0,0,1,2.3.62l1.951-7.455a4.444,4.444,0,0,0-1.744-.344Z" transform="translate(-65.593 -75.6)" fill="#fff" fill-rule="evenodd"></path><path d="M411.26,101.937c-1.579,0-2.181-.831-2.181-2.383,0-.858.046-1.547.046-2.548,0-2.933-1.373-5.922-3.218-7.23v-.055c4.536-.877,10.219-4.545,10.219-10.3,0-3.328-2.465-6.124-6.781-6.124a8.8,8.8,0,0,0-6.505,2.92h-.051l4.1-15.815h-7.9L388.83,99.3h7.919l2.07-7.914a4.694,4.694,0,0,1,3.686,4.875c0,2.194-.308,3.535-.308,5.546,0,3.833,2.764,6.294,6.964,6.294a8.567,8.567,0,0,0,5.266-1.685l-1.1-5.054a4.114,4.114,0,0,1-2.066.583ZM400.05,86.677c.794-3.971,4.168-7.882,6.983-7.882a1.686,1.686,0,0,1,1.878,1.818C408.91,83.533,404.98,86.677,400.05,86.677Z" transform="translate(-210.328 -60.4)" fill="#fff" fill-rule="evenodd"></path><path d="M310.567,88.38c-7.933,0-13.837,7.533-13.837,16.247,0,5.95,4.09,10.146,9.113,10.146,8.139,0,14.176-7.465,14.176-15.71,0-6.638-3.93-10.683-9.457-10.683Zm-3.8,20.42c-1.4,0-2.5-1.634-2.5-4.508,0-5.123,2.442-10.233,5.688-10.233,1.662,0,2.557,2.011,2.557,4.582,0,4.513-2.686,10.155-5.738,10.155Z" transform="translate(-160.509 -75.535)" fill="#fff" fill-rule="evenodd"></path><path d="M358.983,103.98c0-5.917,3.31-9.967,6.859-9.967a6.2,6.2,0,0,1,4.224,1.951l1.474-5.7a11.946,11.946,0,0,0-6.276-1.878c-7.611,0-13.814,8.025-13.814,15.907,0,6.188,4.173,10.481,9.517,10.481a11.41,11.41,0,0,0,4.444-.785l1.552-6.014a6.526,6.526,0,0,1-3.916.937c-2.451,0-4.063-1.607-4.063-4.935Z" transform="translate(-190.108 -75.54)" fill="#fff" fill-rule="evenodd"></path><path d="M263.172,102.512a2.678,2.678,0,0,1-2.663-2.892c0-2.158.28-4.6.28-7.2,0-4.637-2.442-8.149-4.288-9.3l.009-.129c5.266-1.139,10.742-6.583,10.742-12.248,0-5.973-3.76-10.338-12.032-10.338h-7.639a8.288,8.288,0,0,1-7.57,4.122l-1.373,5.224a11.515,11.515,0,0,0,1.327.064,10.971,10.971,0,0,0,4.522-1.056L236.5,99.307h8.08l3.9-14.9c2.571.689,4.944,3.875,4.944,7.533,0,3.838-.982,5.766-.982,9.9,0,4.531,3.461,7.29,8.36,7.29a8.995,8.995,0,0,0,6.032-2.126l-1.175-5.1a4.375,4.375,0,0,1-2.488.615ZM251.631,78.6h-1.621l3.259-12.51h1.074c3.42,0,4.692,2.2,4.692,4.908C259.036,74.958,256.585,78.6,251.631,78.6Z" transform="translate(-127.929 -60.405)" fill="#fff" fill-rule="evenodd"></path></g><g transform="translate(170.886 71.721)"><path d="M372.24,156.23h2.929v.611H374.03v3.2h-.647v-3.2h-1.139v-.611Zm6.037,0h.817v3.815h-.6v-2.819l-.914,2.819H377.1l-.914-2.846v2.846H375.6V156.23h.8l.937,2.617.936-2.617Z" transform="translate(-372.24 -156.23)" fill="#fff"></path></g><g transform="translate(82.739 82.519)"><path d="M180.23,179.76h6.877c3.994,0,7.226,1,7.226,4.761a4.541,4.541,0,0,1-2.41,4.113v.119a4.348,4.348,0,0,1,3.292,4.467c0,3.939-3.406,5.642-7.52,5.642h-7.46v-19.1Zm6.758,7.46c1.643,0,2.41-.762,2.41-1.937s-.762-1.643-2.41-1.643h-1.7v3.585h1.7Zm.353,7.758c2,0,2.938-.707,2.938-2.116s-.941-1.937-2.938-1.937h-2.057v4.054Z" transform="translate(-180.23 -179.755)" fill="#fff"></path><path d="M218.12,179.76h12.34v4.233h-7.286v3h6.23v4.233h-6.23v3.406h7.579v4.233H218.12v-19.1Z" transform="translate(-200.726 -179.755)" fill="#fff"></path><path d="M255.684,183.983H250.63V179.75h15.159v4.233h-5.054v14.865H255.68V183.983Z" transform="translate(-218.311 -179.75)" fill="#fff"></path></g></g></g></svg> 