<svg width="107" height="29" viewBox="0 0 107 29" fill="none" xmlns="http://www.w3.org/2000/svg">
<path fill-rule="evenodd" clip-rule="evenodd" d="M106.908 21.1821H0V19.9128H106.908V21.1821Z" fill="white"/>
<path d="M3.00801 27.8717C3.00801 28.0551 2.96274 28.2131 2.87218 28.3457C2.78304 28.4783 2.65429 28.5798 2.48591 28.6503C2.31895 28.7209 2.11945 28.7561 1.88741 28.7561C1.77421 28.7561 1.66597 28.7498 1.56269 28.7371C1.4594 28.7244 1.36177 28.7061 1.2698 28.6821C1.17925 28.6567 1.09647 28.6264 1.02148 28.5911V28.1129C1.14741 28.1679 1.28819 28.218 1.44383 28.2632C1.59947 28.3069 1.75794 28.3287 1.91924 28.3287C2.05083 28.3287 2.15978 28.3118 2.24609 28.278C2.33381 28.2427 2.3989 28.1933 2.44134 28.1299C2.48379 28.065 2.50501 27.9895 2.50501 27.9035C2.50501 27.8118 2.48025 27.7342 2.43073 27.6707C2.38121 27.6073 2.30622 27.5494 2.20576 27.4972C2.10672 27.4436 1.98221 27.3865 1.83223 27.3259C1.73035 27.285 1.63272 27.2384 1.53934 27.1862C1.44737 27.134 1.36531 27.0727 1.29315 27.0021C1.22099 26.9316 1.16368 26.8484 1.12124 26.7525C1.0802 26.6552 1.05969 26.5409 1.05969 26.4097C1.05969 26.2348 1.10143 26.0853 1.18491 25.9612C1.2698 25.8371 1.38865 25.7418 1.54146 25.6756C1.69569 25.6093 1.87538 25.5761 2.08054 25.5761C2.24326 25.5761 2.39607 25.593 2.53897 25.6269C2.68329 25.6607 2.82478 25.7087 2.96344 25.7708L2.80214 26.1791C2.6748 26.1269 2.551 26.0853 2.43073 26.0543C2.31188 26.0232 2.1902 26.0077 2.06569 26.0077C1.95815 26.0077 1.86689 26.024 1.7919 26.0564C1.71691 26.0888 1.65961 26.1347 1.61999 26.1939C1.58179 26.2517 1.56269 26.3209 1.56269 26.4013C1.56269 26.4915 1.58462 26.5677 1.62848 26.6298C1.67376 26.6904 1.74309 26.7461 1.83647 26.7969C1.93127 26.8477 2.05295 26.9041 2.20152 26.9662C2.37272 27.0367 2.51775 27.1108 2.6366 27.1883C2.75687 27.2659 2.84884 27.359 2.91251 27.4676C2.97618 27.5748 3.00801 27.7095 3.00801 27.8717Z" fill="white"/>
<path d="M6.86646 28.7138V25.6205H7.37583V28.7138H6.86646Z" fill="white"/>
<path d="M12.7942 28.7138L11.9007 26.1304H11.8816C11.8858 26.1883 11.8908 26.2673 11.8965 26.3674C11.9021 26.4676 11.9071 26.5748 11.9113 26.689C11.9156 26.8033 11.9177 26.9126 11.9177 27.017V28.7138H11.455V25.6205H12.1702L13.0298 28.0897H13.0425L13.9318 25.6205H14.6449V28.7138H14.1589V26.9916C14.1589 26.8971 14.1603 26.7948 14.1631 26.6848C14.1674 26.5748 14.1716 26.4704 14.1759 26.3716C14.1815 26.2729 14.1858 26.1939 14.1886 26.1347H14.1716L13.2442 28.7138H12.7942Z" fill="white"/>
<path d="M19.624 25.6205C20.0244 25.6205 20.3166 25.7024 20.5005 25.866C20.6844 26.0296 20.7764 26.2588 20.7764 26.5536C20.7764 26.6876 20.7552 26.8153 20.7127 26.9366C20.6717 27.0565 20.6038 27.1629 20.509 27.256C20.4142 27.3477 20.289 27.4204 20.1333 27.474C19.9791 27.5276 19.7888 27.5544 19.5624 27.5544H19.2313V28.7138H18.722V25.6205H19.624ZM19.59 26.0416H19.2313V27.1312H19.5094C19.6692 27.1312 19.8051 27.1129 19.9169 27.0762C20.0286 27.0381 20.1135 26.9782 20.1715 26.8964C20.2295 26.8145 20.2586 26.7066 20.2586 26.5726C20.2586 26.3935 20.2041 26.2602 20.0951 26.1728C19.9876 26.0853 19.8192 26.0416 19.59 26.0416Z" fill="white"/>
<path d="M24.6561 28.7138V25.6205H25.1655V28.2822H26.4834V28.7138H24.6561Z" fill="white"/>
<path d="M31.159 27.0318L31.8955 25.6205H32.4451L31.4137 27.512V28.7138H30.9064V27.5311L29.8728 25.6205H30.4268L31.159 27.0318Z" fill="white"/>
<path d="M40.5016 25.6205H41.4249C41.8253 25.6205 42.1274 25.6784 42.3311 25.794C42.5348 25.9097 42.6367 26.1093 42.6367 26.3928C42.6367 26.5113 42.6155 26.6185 42.573 26.7144C42.532 26.8089 42.4719 26.8872 42.3926 26.9493C42.3134 27.0099 42.2158 27.0508 42.0998 27.072V27.0931C42.22 27.1143 42.3269 27.1517 42.4202 27.2053C42.515 27.2589 42.5893 27.3357 42.6431 27.4359C42.6983 27.536 42.7259 27.6658 42.7259 27.8252C42.7259 28.0142 42.6806 28.175 42.59 28.3076C42.5009 28.4402 42.3728 28.541 42.2059 28.6101C42.0403 28.6793 41.8437 28.7138 41.6159 28.7138H40.5016V25.6205ZM41.011 26.8964H41.4991C41.7298 26.8964 41.8896 26.859 41.9788 26.7842C42.0679 26.7095 42.1125 26.6001 42.1125 26.4563C42.1125 26.3096 42.0594 26.2038 41.9533 26.1389C41.8486 26.074 41.6817 26.0416 41.4524 26.0416H41.011V26.8964ZM41.011 27.3068V28.2885H41.5479C41.7857 28.2885 41.9526 28.2427 42.0488 28.151C42.145 28.0593 42.1931 27.9352 42.1931 27.7786C42.1931 27.6827 42.1712 27.5995 42.1274 27.529C42.0849 27.4584 42.0149 27.4041 41.9172 27.3661C41.8196 27.3266 41.688 27.3068 41.5225 27.3068H41.011Z" fill="white"/>
<path d="M48.3841 28.7138H46.6268V25.6205H48.3841V26.0479H47.1361V26.8879H48.3055V27.3132H47.1361V28.2843H48.3841V28.7138Z" fill="white"/>
<path d="M53.3907 28.7138H52.8792V26.0522H51.9709V25.6205H54.297V26.0522H53.3907V28.7138Z" fill="white"/>
<path d="M59.1084 28.7138H58.5969V26.0522H57.6885V25.6205H60.0146V26.0522H59.1084V28.7138Z" fill="white"/>
<path d="M65.5073 28.7138H63.75V25.6205H65.5073V26.0479H64.2593V26.8879H65.4287V27.3132H64.2593V28.2843H65.5073V28.7138Z" fill="white"/>
<path d="M70.3102 25.6205C70.5776 25.6205 70.7983 25.653 70.9723 25.7179C71.1478 25.7828 71.278 25.8815 71.3629 26.0141C71.4492 26.1467 71.4923 26.3152 71.4923 26.5197C71.4923 26.6721 71.464 26.8019 71.4074 26.9091C71.3508 27.0163 71.2766 27.1051 71.1846 27.1756C71.0926 27.2462 70.9943 27.3026 70.8896 27.3449L71.7704 28.7138H71.1952L70.446 27.474H69.9473V28.7138H69.4379V25.6205H70.3102ZM70.2762 26.0437H69.9473V27.055H70.2996C70.5359 27.055 70.7071 27.0113 70.8132 26.9239C70.9207 26.8364 70.9745 26.7073 70.9745 26.5367C70.9745 26.3575 70.9172 26.2306 70.8026 26.1558C70.6894 26.0811 70.5139 26.0437 70.2762 26.0437Z" fill="white"/>
<path d="M82.1636 25.6205L81.079 28.7138H80.5399L79.4554 25.6205H79.9775L80.6312 27.5586C80.651 27.615 80.6722 27.6834 80.6949 27.7638C80.7189 27.8442 80.7409 27.9253 80.7607 28.0071C80.7819 28.089 80.7982 28.1616 80.8095 28.2251C80.8208 28.1616 80.8364 28.089 80.8562 28.0071C80.8774 27.9253 80.8993 27.8442 80.922 27.7638C80.9446 27.6834 80.9658 27.6143 80.9856 27.5565L81.6414 25.6205H82.1636Z" fill="white"/>
<path d="M87.7538 28.7138L87.4503 27.8548H86.264L85.9605 28.7138H85.4235L86.5781 25.6078H87.1426L88.295 28.7138H87.7538ZM87.3188 27.419L87.0238 26.5726C87.0124 26.536 86.9962 26.4845 86.9749 26.4182C86.9537 26.3505 86.9325 26.2821 86.9113 26.213C86.89 26.1424 86.8724 26.0832 86.8582 26.0352C86.8441 26.0931 86.8264 26.158 86.8052 26.2299C86.7853 26.3004 86.7655 26.3667 86.7457 26.4288C86.7273 26.4908 86.7132 26.5388 86.7033 26.5726L86.4062 27.419H87.3188Z" fill="white"/>
<path d="M91.9646 28.7138V25.6205H92.474V28.2822H93.792V28.7138H91.9646Z" fill="white"/>
<path d="M100.025 25.6205V27.6221C100.025 27.8379 99.9793 28.0311 99.8874 28.2018C99.7968 28.3725 99.6596 28.5079 99.4756 28.608C99.2917 28.7068 99.0604 28.7561 98.7816 28.7561C98.384 28.7561 98.0813 28.6525 97.8733 28.4451C97.6667 28.2364 97.5634 27.9592 97.5634 27.6136V25.6205H98.0728V27.5692C98.0728 27.8273 98.1336 28.0177 98.2553 28.1404C98.377 28.2632 98.5588 28.3245 98.8007 28.3245C98.9677 28.3245 99.1035 28.2956 99.2082 28.2378C99.3143 28.1785 99.3922 28.0925 99.4417 27.9796C99.4926 27.8654 99.5181 27.7279 99.5181 27.5671V25.6205H100.025Z" fill="white"/>
<path d="M105.836 28.7138H104.079V25.6205H105.836V26.0479H104.588V26.8879H105.758V27.3132H104.588V28.2843H105.836V28.7138Z" fill="white"/>
<path d="M106.946 11.9691C106.868 13.178 106.116 13.8591 104.878 14.065C104.36 14.151 103.826 14.1754 103.302 14.1772C100.169 14.1866 97.0356 14.1847 93.9007 14.1772C93.3257 14.1772 92.7487 14.1473 92.2016 13.9302C91.255 13.5522 90.749 12.8299 90.581 11.8568C90.525 11.5293 90.5007 11.1925 90.4988 10.8594C90.4895 9.56819 90.4988 8.27699 90.4951 6.98765C90.4951 6.47678 90.5511 5.9734 90.7303 5.49247C91.0944 4.51378 91.8376 3.98981 92.8458 3.82326C93.1819 3.76712 93.5254 3.74654 93.8671 3.74654C97.8161 3.74092 101.767 3.7428 105.716 3.74092C106.289 3.74092 106.414 3.86069 106.42 4.43331C106.422 4.70091 106.42 4.97225 106.394 5.23797C106.371 5.48499 106.248 5.58978 105.996 5.62346C105.914 5.63469 105.828 5.63843 105.744 5.63843C102.167 5.63843 98.5891 5.63843 95.0117 5.63843C94.6644 5.63843 94.3152 5.63282 93.9679 5.64966C93.18 5.69083 92.717 6.13808 92.6666 6.92403C92.6385 7.36379 92.6479 7.80729 92.6479 8.24892C92.6479 9.16212 92.6423 10.0772 92.6666 10.9904C92.6796 11.5218 92.9055 11.9541 93.4321 12.1637C93.5964 12.2292 93.7794 12.2629 93.9567 12.2741C94.2854 12.2966 94.6158 12.2947 94.9463 12.2966C95.4448 12.2966 95.9434 12.291 96.44 12.291C98.4752 12.291 100.51 12.2928 102.546 12.2891C103.02 12.2891 103.494 12.291 103.965 12.246C104.484 12.1955 104.775 11.9036 104.814 11.3871C104.85 10.895 104.822 10.3991 104.822 9.8807H104.204C102.925 9.8807 101.646 9.8807 100.368 9.8807C100.262 9.8807 100.152 9.8676 100.049 9.84515C99.8886 9.80772 99.771 9.70105 99.7654 9.53638C99.7505 9.15463 99.7467 8.77288 99.7654 8.39301C99.7747 8.19839 99.9129 8.0805 100.107 8.05804C100.273 8.03746 100.441 8.03184 100.609 8.03184C102.471 8.02997 104.331 8.02997 106.192 8.03184C106.317 8.03184 106.444 8.03746 106.569 8.05243C106.84 8.08611 107.001 8.2433 106.999 8.51651C106.993 9.66924 107.023 10.8257 106.948 11.9747L106.946 11.9691ZM34.7183 6.7369C34.7183 8.3088 34.7332 9.8807 34.7015 11.4507C34.6847 12.2872 34.3803 13.0282 33.6914 13.5634C33.2171 13.9321 32.6644 14.1005 32.0726 14.1379C31.5946 14.1679 31.1129 14.1791 30.633 14.1791C27.5784 14.1828 24.5219 14.1885 21.4673 14.1735C20.9855 14.1716 20.4889 14.1323 20.024 14.0144C18.9056 13.73 18.295 12.9515 18.1083 11.84C18.0467 11.4769 18.0149 11.1027 18.0149 10.734C18.0112 9.38293 18.0075 8.03372 18.0429 6.68263C18.0541 6.27842 18.14 5.85925 18.2745 5.4775C18.618 4.49881 19.3723 3.98607 20.375 3.82139C20.7279 3.76338 21.092 3.74654 21.4505 3.74467C23.0898 3.73718 24.7273 3.74092 26.3666 3.74092V3.74467C28.047 3.74467 29.7275 3.74467 31.4097 3.74467C31.9531 3.74467 32.4908 3.78396 33.0024 3.97671C34.0069 4.35659 34.5148 5.12195 34.6735 6.14743C34.7034 6.34205 34.7202 6.54041 34.7202 6.7369H34.7183ZM32.5804 6.95397C32.5394 6.19234 32.123 5.75071 31.3743 5.65528C31.1782 5.63095 30.9784 5.62346 30.7824 5.62346C29.3186 5.62159 27.8529 5.62346 26.389 5.62346C26.389 5.61785 26.389 5.62908 26.389 5.62346C25.1287 5.62346 23.8684 5.63656 22.6081 5.63843C22.2477 5.63843 21.8874 5.63095 21.5289 5.64779C20.6961 5.68709 20.2256 6.13808 20.1995 6.9652C20.1696 7.93828 20.1771 8.91136 20.1733 9.88632C20.1733 10.2568 20.1808 10.6274 20.1957 10.996C20.2256 11.7501 20.7391 12.2292 21.3683 12.2591C21.8463 12.2816 22.3261 12.2891 22.806 12.2891C25.237 12.2928 27.668 12.2891 30.099 12.2891C30.4818 12.2891 30.8664 12.2947 31.2492 12.2779C31.7869 12.2517 32.2387 12.0552 32.4516 11.5237C32.5319 11.3235 32.5767 11.0952 32.5804 10.88C32.5972 9.98362 32.5935 9.08726 32.5954 8.19091C32.5954 7.77922 32.6028 7.36566 32.5804 6.95397ZM81.8745 0.00952698C81.3592 0.000170415 80.8439 0.00204173 80.3286 0.00952698C80.0989 0.0132696 79.8879 0.09935 79.7329 0.322036C79.5425 0.59899 79.3539 0.877816 79.1784 1.16974C77.7781 3.50327 76.3814 5.83867 74.983 8.17406C74.3015 9.31182 73.62 10.4477 72.9216 11.6135C72.875 11.5443 72.8414 11.4975 72.8096 11.447C72.4511 10.85 72.0926 10.2512 71.7342 9.6524C70.2012 7.09806 68.6683 4.54559 67.1335 1.99312C66.818 1.46728 66.495 0.947055 66.1682 0.432444C65.9741 0.12742 65.7108 -0.00544352 65.3952 0.000170415C64.9322 0.00952698 64.4691 0.00204173 64.0061 0.00765566C63.8306 0.00765566 63.6401 -0.00357221 63.5393 0.226599C63.4366 0.460513 63.5655 0.643902 63.6476 0.832904C63.6625 0.868459 63.685 0.900272 63.7036 0.932084C63.98 1.40365 64.2526 1.88084 64.5326 2.3468C66.1645 5.06207 67.7982 7.77547 69.4338 10.487C70.0164 11.4545 70.612 12.4107 71.1796 13.3894C71.4896 13.9246 71.8947 14.1716 72.4101 14.1754C72.6453 14.1772 72.8806 14.166 73.114 14.1791C73.788 14.2184 74.2828 13.8984 74.6898 13.2023C75.8586 11.2018 77.0686 9.23697 78.2579 7.25525C79.5257 5.14254 80.7897 3.02608 82.0538 0.9115C82.1005 0.832905 82.1434 0.752438 82.1808 0.666358C82.3357 0.29958 82.205 0.0132696 81.8727 0.00765566L81.8745 0.00952698ZM61.6348 3.73531H60.1598C59.8685 3.73531 59.5978 3.88876 59.4466 4.13951C58.6418 5.48125 57.839 6.82672 57.0342 8.16845C56.3527 9.30621 55.6694 10.444 54.9711 11.6079C54.9244 11.5387 54.8908 11.4919 54.8609 11.4414C54.5005 10.8426 54.1439 10.2437 53.7854 9.64679C52.8369 8.06927 51.6177 5.75633 50.6318 4.0815C50.5049 3.86443 50.2734 3.73157 50.0232 3.73157C49.6348 3.73157 49.0504 3.73157 48.6545 3.73344C48.3913 3.73344 48.1504 3.8794 48.0253 4.11332L45.8651 8.16845C45.1836 9.30621 44.5021 10.444 43.8019 11.6079C43.7552 11.5387 43.7216 11.4919 43.6917 11.4414C43.3332 10.8426 42.9747 10.2437 42.6163 9.64679C41.5184 7.82039 40.4224 5.99211 39.3245 4.16571C39.1639 3.89811 38.8745 3.73531 38.5627 3.73531H36.901C36.6172 3.73531 36.4417 4.04595 36.5892 4.28922C37.8308 6.35515 39.0743 8.41733 40.3159 10.4833C40.8985 11.4489 41.4941 12.4051 42.0617 13.3857C42.3735 13.9209 42.7768 14.166 43.294 14.1716C43.5293 14.1735 43.7645 14.1623 43.9979 14.1754C44.672 14.2147 45.1668 13.8947 45.5738 13.1985C46.7426 11.1981 47.9525 9.23323 49.1419 7.25151C49.2072 7.1411 49.2744 7.03069 49.3398 6.91841C50.0549 8.1067 50.77 9.29498 51.4851 10.4833C52.0677 11.4489 52.6633 12.4051 53.2309 13.3857C53.5427 13.9209 53.946 14.166 54.4632 14.1716C54.6966 14.1735 54.9318 14.1623 55.1671 14.1754C55.8411 14.2147 56.3359 13.8947 56.743 13.1985C57.9118 11.1981 59.1198 9.23323 60.3111 7.25151C60.8787 6.30275 61.4481 5.354 62.0139 4.40524C62.1894 4.10957 61.9765 3.73531 61.6348 3.73531ZM14.7605 12.2853C14.7493 12.2853 14.7363 12.2853 14.7251 12.2853C11.4296 12.2853 8.13408 12.2872 4.8386 12.2872C4.40729 12.2872 3.97412 12.291 3.54281 12.2779C2.96213 12.2591 2.47108 12.057 2.27503 11.4638C2.18354 11.1869 2.1574 10.8781 2.15553 10.5824C2.14806 8.51464 2.15553 2.70422 2.15553 0.636417C2.15553 0.54098 2.14993 0.445543 2.13313 0.351977C2.09765 0.14239 1.97068 0.0132696 1.75783 0.00765566C1.30972 -0.0017009 0.857875 -0.00357221 0.409763 0.0113983C0.168904 0.0188835 0.045673 0.157361 0.0120646 0.39876C0.00272897 0.464256 0.0045961 0.529752 0.0045961 0.595248C0.00272897 2.74726 -0.00473955 8.64189 0.0045961 10.792C0.0045961 11.2018 0.0382045 11.6192 0.122225 12.0177C0.350015 13.1012 1.01845 13.7992 2.10885 14.0425C2.53269 14.1361 2.97707 14.1716 3.41211 14.1754C5.26057 14.1885 7.10903 14.181 8.95935 14.181C10.8097 14.181 12.7776 14.181 14.6858 14.181C14.7923 14.181 14.9024 14.1697 15.007 14.151C15.2572 14.1061 15.3748 13.9807 15.3879 13.7281C15.401 13.453 15.4047 13.178 15.401 12.9047C15.3935 12.407 15.2684 12.291 14.7605 12.2872V12.2853ZM86.8131 8.57078C86.8131 7.13736 86.8131 5.70206 86.8094 4.26863C86.8094 3.88127 86.6787 3.75028 86.2903 3.7428C85.9729 3.73531 85.6536 3.74092 85.3362 3.74092C84.7761 3.74092 84.6566 3.84946 84.6547 4.40898C84.651 7.47419 84.651 10.5394 84.651 13.6046C84.651 14.0275 84.8003 14.1716 85.2298 14.1791C85.5061 14.1828 85.7824 14.1791 86.0588 14.1791C86.6936 14.1791 86.8187 14.0556 86.8187 13.4287C86.8187 11.9354 86.8187 10.4402 86.8187 8.94692H86.815C86.815 8.82154 86.815 8.69616 86.815 8.57078H86.8131Z" fill="white"/>
</svg>
