<svg x="0px" y="0px" viewBox="0 0 981.2 132.1" style="enable-background:new 0 0 981.2 132.1;" xml:space="preserve">
	<style type="text/css">
		.st0{fill:#180733;}
		.st1{fill:#FFFFFF;}
	</style>
	<g>
		<g>
			<path class="st1" d="M60.8,33.6H21.4V2.2h-4.8C6.9,2.2,0,9.1,0,18.9v92.9c0,10.5,8.6,19,19,19h41.8c29,0,49.4-20.6,49.4-48.5
				S89.8,33.6,60.8,33.6z M62,111.1H21.4V53.3H62c16.8,0,27.6,13.2,27.6,29S78.8,111.1,62,111.1z M176.5,32.4c-35.8,0-56,18-56,49.9
				s20.2,49.9,56,49.9c20.9,0,36.2-6.3,46.4-17.8l-14.6-12.9c-7,7-15.8,11.8-31.9,11.8c-22.2,0-32.9-7.3-35.1-24.2h91.1v-6.9
				C232.6,50.4,212.4,32.4,176.5,32.4z M176.5,51.2c20.9,0,31.6,6.5,34.6,21.3H142C144.9,57.7,155.7,51.2,176.5,51.2z M271.8,111.1
				h51.2v4.8c0,8.7-6.3,14.9-15.1,14.9h-36.3c-15.8,0-27.1-11.5-27.1-27.3V18.9c0-9.8,6.9-16.6,16.6-16.6h4.8v31.4h53.6v4.8
				c0,8.7-6.3,14.9-15.1,14.9H266v51.9C266,108.7,268.4,111.1,271.8,111.1z M497.9,49.9c0-27.6-20.4-47.6-48-47.6h-91
				c-13.2,0-23.8,10.6-23.8,23.8v85.7c0,10.5,8.6,19,19,19h16.1V97.7H449C476.6,97.7,497.9,77.6,497.9,49.9z M370.2,66.3V33.6h76.3
				c8.9,0,16.3,7.4,16.3,16.3c0,9.1-7.4,16.5-16.3,16.5H370.2z M562,0c-12.9,0-24.7,6.9-30.7,18.3L470,130.8h28.6
				c6.9,0,13.5-3.9,16.8-9.9l4.5-8.4c14-0.3,28.1-0.5,42.1-0.5c13.8,0,27.7,0.2,41.6,0.5l4.5,8.4c3.3,6,9.9,9.9,16.8,9.9H654
				L592.7,18.3C586.7,6.9,574.8,0,562,0z M562,81.8c-9.9,0-17.8,0.1-25.8,0.2l25.5-47.7l25.5,47.6C579.4,81.8,571.7,81.8,562,81.8z
				M793.9,100.4c-2.9-3.4-6.8-5.7-11.2-6.5c17.9-8.2,29.9-25.7,29.9-44c0-27.6-20.2-47.6-47.6-47.6h-91.2
				c-13.2,0-23.8,10.6-23.8,23.8v79l14.1,25.7h1.9c10.6,0,19.2-8.6,19.2-19V97.7h60.5l22.3,26.2c3.6,4.3,8.9,6.9,14.6,6.9h37.2
				L793.9,100.4z M761.1,66.3H685V33.6h76.1c8.9,0,16.3,7.4,16.3,16.3C777.4,59,770.1,66.3,761.1,66.3z"></path>
		</g>
		<g>
			<path class="st1" d="M845.7,130.8h-32.8c-2.3,0-3.5-2.8-1.9-4.5l59.8-59.8L811.1,6.8c-1.7-1.7-0.5-4.5,1.9-4.5h32.8
				c6.9,0,13.5,2.7,18.4,7.6l56.7,56.7L864,123.2C859.2,128,852.6,130.8,845.7,130.8z"></path>
			<g>
				<g>
					<path class="st1" d="M934.5,52.7l46-46c1.7-1.7,0.5-4.5-1.9-4.5h-32.8c-6.9,0-13.5,2.7-18.4,7.6l-25.7,25.7l17.1,17.1
						C923.2,57.1,930.1,57.1,934.5,52.7z"></path>
					<path class="st1" d="M901.7,97.4l25.7,25.7c4.9,4.9,11.5,7.6,18.4,7.6h32.8c2.3,0,3.5-2.8,1.9-4.5l-46-46
						c-4.3-4.3-11.3-4.3-15.6,0L901.7,97.4z"></path>
				</g>
			</g>
		</g>
	</g>
</svg>