<svg width="814" height="121" viewBox="0 0 814 121" fill="none" xmlns="http://www.w3.org/2000/svg">
<path d="M118.021 29.1669C117.027 27.8541 115.939 26.6473 114.759 25.5201C114.441 25.1753 100.172 10.9329 99.8402 10.6013C93.5146 3.94423 84.4175 0.17807 74.3655 0.17807H26.705C23.0449 0.17807 19.8225 2.79051 19.0533 6.38428L0.169491 95.3002C-0.30791 97.5281 0.235797 99.7957 1.64148 101.533C1.94648 101.904 17.2233 117.168 17.5814 117.473C18.987 119.197 21.0823 120.178 23.3367 120.178C24.8219 120.178 26.2807 119.74 27.5405 118.918L59.6192 98.1779H74.4318C95.9812 98.1779 117.398 81.9727 123.18 61.2721C126.469 49.5228 124.585 37.8132 118.008 29.1537L118.021 29.1669Z" fill="#8000FF"/>
<path d="M74.3657 6.80861H26.7052C26.1747 6.80861 25.6576 7.23296 25.5515 7.76341L17.0113 47.9181C16.9052 48.4486 17.2367 48.8729 17.7672 48.8729C27.8059 48.8729 37.6589 40.7439 39.7939 30.7052L40.815 25.9312H70.3078C79.2458 25.9312 84.7757 33.6359 81.9511 42.7595C79.4845 50.703 71.1035 56.5246 63.1203 56.5246H61.078L63.9159 43.1706C64.0883 42.3882 63.2794 41.9374 62.55 42.4015L33.296 61.3119L35.736 49.8277C35.8421 49.2973 35.5106 48.8729 34.9801 48.8729C24.9415 48.8729 15.0884 57.002 12.9534 67.0407L6.65435 96.6793C6.48195 97.4617 7.29088 97.9126 8.02025 97.4485L41.7433 75.6472H58.5186C76.8323 75.6472 95.7824 61.8556 100.888 43.5817C106.497 23.5442 94.1248 6.80861 74.3657 6.80861Z" fill="#FBF9FF"/>
<path d="M154.764 96.6356V23.7378C154.764 23.254 155.144 22.8739 155.628 22.8739H191.774C202.919 22.8739 211.264 24.9991 216.811 29.2496C222.357 33.5001 225.122 39.945 225.122 48.5842C225.122 57.2234 222.288 63.772 216.603 68.0225C210.919 72.273 202.228 74.3982 190.53 74.3982H176.103V96.6356C176.103 97.1194 175.723 97.4995 175.239 97.4995H155.628C155.144 97.4995 154.764 97.1194 154.764 96.6356ZM190.098 57.9837C194.833 57.9837 198.271 57.2407 200.396 55.7375C202.522 54.2343 203.593 51.8153 203.593 48.4805C203.593 45.1458 202.556 42.9342 200.465 41.4828C198.375 40.0141 194.988 39.2884 190.323 39.2884H176.103V58.001H190.116L190.098 57.9837Z" fill="#FBF9FF"/>
<path d="M281.104 97.0848L266.4 72.2211H249.26V96.6529C249.26 97.1367 248.88 97.5168 248.396 97.5168H229.424C228.94 97.5168 228.56 97.1367 228.56 96.6529V23.7378C228.56 23.254 228.94 22.8739 229.424 22.8739H266.711C288.931 22.8739 300.058 31.133 300.058 47.6512C300.058 52.5928 298.97 56.7224 296.81 60.0398C294.65 63.3573 291.333 66.0182 286.875 68.0397L304.343 96.2036C304.706 96.7738 304.292 97.5168 303.618 97.5168H281.83C281.519 97.5168 281.242 97.3613 281.087 97.0848H281.104ZM265.363 56.325C270.098 56.325 273.553 55.6338 275.713 54.2343C277.873 52.8347 278.961 50.5712 278.961 47.4438C278.961 44.3164 277.925 42.1739 275.886 40.8089C273.83 39.4439 270.391 38.7701 265.588 38.7701H249.277V56.325H265.381H265.363Z" fill="#FBF9FF"/>
<path d="M308.058 96.6356V23.7378C308.058 23.254 308.438 22.8739 308.922 22.8739H329.138C329.622 22.8739 330.002 23.254 330.002 23.7378V96.6356C330.002 97.1194 329.622 97.4995 329.138 97.4995H308.922C308.438 97.4995 308.058 97.1194 308.058 96.6356Z" fill="#FBF9FF"/>
<path d="M336.568 96.8256L333.613 82.9338C333.527 82.5018 333.648 82.0526 333.959 81.7416L375.894 40.0141H334.529C333.976 40.0141 333.561 39.513 333.682 38.9774L336.965 23.565C337.052 23.1676 337.397 22.8739 337.812 22.8739H399.98C400.394 22.8739 400.74 23.1676 400.826 23.565L403.781 37.4569C403.867 37.8889 403.746 38.3381 403.435 38.6491L361.501 80.3766H402.865C403.418 80.3766 403.833 80.8776 403.712 81.4133L400.429 96.8256C400.342 97.223 399.997 97.5168 399.582 97.5168H337.414C337 97.5168 336.654 97.223 336.568 96.8256Z" fill="#FBF9FF"/>
<path d="M407.375 96.6356V23.7378C407.375 23.254 407.755 22.8739 408.239 22.8739H470.614C471.029 22.8739 471.374 23.1676 471.461 23.565L474.674 38.6664C474.795 39.202 474.381 39.7031 473.828 39.7031H428.904V51.0896H469.335C469.819 51.0896 470.199 51.4697 470.199 51.9535V67.0549C470.199 67.5387 469.819 67.9188 469.335 67.9188H428.904V80.6703H473.828C474.381 80.6703 474.795 81.1714 474.674 81.707L471.461 96.8084C471.374 97.2058 471.029 97.4995 470.614 97.4995H408.239C407.755 97.4995 407.375 97.1194 407.375 96.6356Z" fill="#FBF9FF"/>
<path d="M478.355 96.6356V23.7378C478.355 23.254 478.735 22.8739 479.219 22.8739H515.365C526.51 22.8739 534.855 24.9991 540.402 29.2496C545.948 33.5001 548.713 39.945 548.713 48.5842C548.713 57.2234 545.879 63.772 540.194 68.0225C534.51 72.273 525.819 74.3982 514.121 74.3982H499.694V96.6356C499.694 97.1194 499.313 97.4995 498.83 97.4995H479.236C478.752 97.4995 478.372 97.1194 478.372 96.6356H478.355ZM513.689 57.9837C518.423 57.9837 521.862 57.2407 523.987 55.7375C526.112 54.2343 527.184 51.8153 527.184 48.4805C527.184 45.1458 526.147 42.9342 524.056 41.4828C521.965 40.0141 518.579 39.2884 513.914 39.2884H499.694V58.001H513.706L513.689 57.9837Z" fill="#FBF9FF"/>
<path d="M552.151 96.6356V23.7378C552.151 23.254 552.531 22.8739 553.015 22.8739H573.231C573.714 22.8739 574.095 23.254 574.095 23.7378V96.6356C574.095 97.1194 573.714 97.4995 573.231 97.4995H553.015C552.531 97.4995 552.151 97.1194 552.151 96.6356Z" fill="#FBF9FF"/>
<path d="M659.778 69.9058C660.297 69.9058 660.711 70.3723 660.642 70.8907C659.502 79.7545 655.528 86.6832 648.737 91.6421C641.705 96.7911 632.288 99.3828 620.522 99.3828C611.744 99.3828 604.142 97.8451 597.731 94.7868C591.321 91.7285 586.362 87.2188 582.837 81.3096C579.313 75.3831 577.568 68.3508 577.568 60.1953C577.568 52.4546 579.278 45.6296 582.682 39.7031C586.103 33.7766 591.027 29.1805 597.472 25.8976C603.917 22.6147 611.641 20.9905 620.625 20.9905C631.424 20.9905 640.046 23.1849 646.491 27.5736C652.694 31.8068 656.91 38.0962 659.156 46.459C659.295 46.9773 658.932 47.4957 658.413 47.5475L638.129 49.8628C637.731 49.9147 637.368 49.6728 637.23 49.2926C635.9 45.6642 633.982 43.0033 631.442 41.3273C628.764 39.5476 625.118 38.6664 620.522 38.6664C614.181 38.6664 609.239 40.567 605.68 44.3683C602.12 48.1695 600.341 53.4395 600.341 60.1953C600.341 66.9512 602.138 72.3248 605.731 76.0915C609.325 79.8582 614.388 81.7416 620.936 81.7416C626.016 81.7416 630.008 80.7912 632.91 78.8733C635.64 77.0591 637.489 74.2945 638.457 70.597C638.56 70.2168 638.889 69.9404 639.286 69.9404H659.796L659.778 69.9058Z" fill="#FBF9FF"/>
<path d="M720.305 97.1367L697.048 64.6704L686.18 74.2945V96.6356C686.18 97.1194 685.8 97.4995 685.316 97.4995H665.1C664.616 97.4995 664.236 97.1194 664.236 96.6356V23.7378C664.236 23.254 664.616 22.8739 665.1 22.8739H685.316C685.8 22.8739 686.18 23.254 686.18 23.7378V51.2969L716.659 23.0985C716.815 22.943 717.022 22.8739 717.247 22.8739H740.607C741.402 22.8739 741.765 23.8415 741.194 24.3771L711.994 51.2105L744.65 96.1518C745.065 96.722 744.65 97.5168 743.959 97.5168H721.013C720.737 97.5168 720.478 97.3785 720.305 97.1539V97.1367Z" fill="#FBF9FF"/>
<path d="M791.267 45.284C790.905 45.3186 790.559 45.1112 790.404 44.7657C789.211 42.1394 787.483 40.2214 785.22 39.012C782.784 37.7161 779.432 37.0768 775.181 37.0768C770.378 37.0768 766.732 37.5951 764.261 38.6491C761.79 39.6858 760.546 41.2236 760.546 43.2452C760.546 45.1285 761.203 46.5281 762.533 47.4266C763.864 48.325 766.438 49.1026 770.274 49.7246L786.378 52.3336C796.071 53.8714 803.051 56.4632 807.336 60.1262C811.621 63.7892 813.764 68.8864 813.764 75.4349C813.764 83.3139 810.585 89.275 804.261 93.3008C797.92 97.344 788.537 99.3656 776.149 99.3656C763.76 99.3656 754.292 97.1712 747.778 92.7825C741.505 88.5493 737.86 82.2599 736.858 73.8971C736.788 73.3788 737.203 72.9295 737.721 72.9295H758.024C758.421 72.9295 758.749 73.206 758.853 73.6034C759.631 76.8172 761.324 79.2016 763.933 80.774C766.715 82.45 770.792 83.2793 776.166 83.2793C781.177 83.2793 785.047 82.6573 787.76 81.396C790.473 80.1347 791.838 78.3723 791.838 76.0569C791.838 74.3118 791.095 72.9641 789.591 71.9792C788.088 71.0116 785.496 70.2341 781.799 69.6812L768.529 67.6942C758.283 66.1564 750.801 63.4782 746.05 59.6424C741.315 55.8066 738.948 50.554 738.948 43.8672C738.948 36.6966 742.231 31.0811 748.78 27.038C755.328 22.9948 764.382 20.9733 775.959 20.9733C786.689 20.9733 795 22.822 800.892 26.5196C806.524 30.0617 810.066 35.3144 811.535 42.2949C811.639 42.7959 811.276 43.297 810.758 43.3316L791.319 45.2668L791.267 45.284Z" fill="#FBF9FF"/>
</svg>
