<?xml version="1.0" encoding="UTF-8"?>
<svg id="Layer_1" xmlns="http://www.w3.org/2000/svg" viewBox="0 0 261.04 51.29">
  <defs>
    <style>
      .cls-1 {
        fill: #a32a29;
      }

      .cls-2 {
        fill: #a32b29;
      }
    </style>
  </defs>
  <g>
    <g id="solid">
      <path class="cls-2" d="M33.55,28.69s.05-.1.07-.15c.39-.78.79-1.54,1.2-2.27,1.03-1.85,2.12-3.57,3.25-5.16.1-.14.2-.28.3-.42,2.75-3.78,5.72-6.81,8.67-9.22-.96-1.44-2.06-2.78-3.28-3.99-1.34-1.34-2.83-2.53-4.44-3.54-1.56,1.22-3.01,2.57-4.35,4-.37.39-.72.79-1.07,1.2h0s-.1.12-.1.12c0,0,0,0-.01.01h0s-.02.02-.02.02h0s-.01.01-.02.02l-.08.09h0c-.2.23-.39.46-.58.7h0s0,.01,0,.01c-2.39,2.92-4.36,6.03-5.91,8.88-.11.21-.23.42-.34.62-.48.9-.92,1.78-1.32,2.6l-.53,1.31-2.42,6.01c.02.17.05.34.07.52.2,1.39.47,2.78.77,4.15.14.63.29,1.25.44,1.86h0s.05.22.05.22c0,.02,0,.03.01.05h0s0,0,0,0h0s.01.05.02.07l.08.32h0c.28,1.07.56,2.11.85,3.09,1.26,4.22,2.51,7.27,2.63,7.27,0,0,0,0,0-.01.36-1.91.78-3.74,1.24-5.49.16-.6.32-1.18.49-1.76,1.19-4.13,2.66-7.83,4.3-11.13Z"/>
      <path class="cls-2" d="M51.32,25.6s0,0,0-.01c0-.01,0-.03,0-.04h0s0-.04,0-.06h0s0-.07,0-.11c0,0,0,0,0,0-.05-4.42-1.21-8.57-3.22-12.19-2.38,2.03-4.86,4.62-7.23,7.93-.49.68-.97,1.39-1.45,2.13-1.04,1.61-2.05,3.37-3.02,5.29-.12.24-.24.48-.36.72-.41.84-.81,1.71-1.2,2.61-.52,1.19-1.01,2.42-1.49,3.72-.02.06-.05.12-.07.18-.47,1.29-.93,2.64-1.36,4.04-.56,1.81-1.07,3.72-1.55,5.72-.08.35-.16.69-.24,1.05-.25,1.12-.48,2.25-.72,3.37-.07.34-.15.68-.23,1.02v.05s-.02.02-.02.02c.22-.03.43-.06.65-.1.86-.14,1.7-.32,2.53-.54,1.68-.45,3.29-1.07,4.82-1.83.36-.18.71-.37,1.06-.56,3.5-1.96,6.49-4.72,8.72-8.02,2.07-3.06,3.5-6.59,4.09-10.4,0,0,0,0,0,0,0-.01,0-.02,0-.03,0,0,0,0,0,0,0,0,0-.02,0-.03,0,0,0,0,0-.01,0,0,0-.02,0-.02,0,0,0,0,0-.01,0,0,0-.02,0-.02,0,0,0-.01,0-.02,0,0,0-.01,0-.02,0,0,0-.01,0-.02,0,0,0-.01,0-.02,0,0,0-.02,0-.02,0,0,0,0,0-.01,0-.01,0-.02,0-.03,0,0,0,0,0,0,0-.05.01-.1.02-.16,0,0,0,0,0,0,0-.01,0-.02,0-.04,0,0,0,0,0,0,0-.01,0-.02,0-.03,0,0,0,0,0,0,0-.01,0-.02,0-.03,0,0,0,0,0,0,0-.01,0-.02,0-.04,0,0,0,0,0,0,.13-.99.2-1.99.21-3.01h0s0-.03,0-.04c0,0,0,0,0,0,0-.01,0-.02,0-.04,0,0,0,0,0,0,0-.01,0-.02,0-.03,0,0,0,0,0,0,0-.01,0-.02,0-.03,0,0,0,0,0,0,0-.01,0-.02,0-.03,0,0,0,0,0-.01,0-.01,0-.02,0-.03,0,0,0,0,0-.01,0,0,0-.02,0-.03h0s0-.04,0-.05c0-.02,0-.03,0-.05Z"/>
      <path class="cls-2" d="M21.66,41.95c-.37-1.17-.76-2.41-1.14-3.74-.26,1.91-.39,3.58-.45,4.87-.05,1.02-.06,1.8-.07,2.27,0,.01,0,.02-.01.03,0,0,0,0,0,0-.09.34-1.12.94-2.22,1.54l-.09.05c-.31.17-.63.34-.93.51-.22-.45-.44-.9-.65-1.35-1.05-2.24-1.96-4.46-2.74-6.62-.22-.61-.43-1.22-.63-1.82-.45-1.36-.85-2.69-1.21-3.99-.29-1.06-.55-2.11-.79-3.13-.04-.18-.08-.35-.12-.53-.5-2.23-.87-4.34-1.13-6.27-.03-.19-.05-.38-.08-.56-.51-3.96-.6-7.17-.52-9.23.05-1.19.15-2.01.25-2.37.32-.72,3.05-2.48,3.05-2.48,0,.02,0,.03,0,.05.02-.01.03-.02.03-.02-.14,1.55-.2,3.08-.2,4.6,0,.86.02,1.71.06,2.55.06,1.35.17,2.69.32,3.99.11.99.24,1.96.39,2.91.19,1.22.41,2.4.66,3.54.24,1.14.5,2.24.78,3.29.4,1.53.82,2.95,1.25,4.25.41,1.26.83,2.4,1.21,3.39.39,1.01.76,1.87,1.07,2.55.15-.83.31-1.69.49-2.55.13-.63.26-1.27.4-1.89.26-1.18.54-2.33.82-3.37.03-.13.07-.25.1-.38-.1-.68-.18-1.35-.25-2-.18-1.58-.28-3.06-.33-4.45-.03-.83-.04-1.63-.04-2.39,0-.13,0-.25,0-.38h0s0,0,0,0c.02-1.42.09-2.7.19-3.84.37-4.08,1.14-6.34,1.23-6.47.02-.04.08-.09.16-.15.38-.31,1.3-.9,1.96-1.31.42-.26.72-.44.72-.44,0,.01,0,.02,0,.04,0,0,.01,0,.01,0-.03.14-.07.28-.1.41-.45,1.88-.73,3.72-.88,5.54-.07.79-.11,1.59-.13,2.38-.01.47-.02.94-.02,1.41,0,1.24.04,2.49.12,3.75.52-1.27,1.05-2.49,1.6-3.66.24-.51.48-1.01.72-1.5.4-.81.81-1.59,1.22-2.35,1.12-2.04,2.27-3.89,3.46-5.58.23-.32.46-.64.69-.95.94-1.27,1.89-2.43,2.86-3.5.4-.44.8-.87,1.2-1.28.98-1,1.98-1.91,2.98-2.74-1.52-.74-3.12-1.34-4.79-1.77-.62-.16-1.25-.3-1.88-.41-.17-.03-.34-.06-.5-.09-.1-.02-.2-.03-.3-.05h0s-.02,0-.04,0c0,0,0,0-.01,0,0,0-.01,0-.02,0-.68-.1-1.36-.17-2.05-.21-.54-.03-1.09-.05-1.64-.05-.22,0-.44,0-.65,0-1.9.05-3.75.3-5.52.74-.43.11-.86.22-1.28.35-2.39.72-4.62,1.79-6.66,3.13h0s-.08.05-.08.05c0,0,0,0-.01,0h0s-.02.01-.02.01h0s-.04.03-.06.04l-.1.07h0c-.06.04-.11.08-.17.12-1.63,1.13-3.13,2.44-4.46,3.9-1.17,1.29-2.21,2.7-3.1,4.21-2.25,3.82-3.55,8.27-3.55,13.02,0,1.5.13,2.98.38,4.41.14.8.31,1.58.52,2.35h0s0,.02.01.04c0,0,0,0,0,0,0,.01,0,.02,0,.03,0,0,0,0,0,0,0,0,0,.02,0,.03,0,0,0,0,0,.01,0,0,0,.02,0,.03,0,0,0,.01,0,.02,0,0,0,.01,0,.02,0,0,0,.01,0,.02,0,0,0,.01,0,.02,0,0,0,.01,0,.02,0,0,0,.01,0,.02,0,0,0,.01,0,.02,0,0,0,.01,0,.02,0,0,0,.02,0,.02,0,0,0,0,0,.01,0,0,0,.02,0,.03,0,0,0,0,0,.01,0,0,0,.02,0,.03,0,0,0,0,0,0,0,0,0,.02,0,.03,0,0,0,0,0,0,0,.01,0,.02,0,.03,0,0,0,0,0,0,0,.01,0,.02,0,.03,0,0,0,0,0,0,0,.01,0,.02.01.03,0,0,0,0,0,0,0,.01,0,.02.01.04h0c1.02,3.42,2.74,6.55,4.99,9.2.45.54.93,1.05,1.42,1.55,2.15,2.16,4.68,3.93,7.48,5.22,1.08.5,2.21.92,3.37,1.27.27.08.55.16.83.23,1.35.35,2.75.6,4.18.73.58.05,1.17.08,1.77.1-.84-1.94-2.08-5.08-3.44-9.32v-.02Z"/>
    </g>
    <g>
      <g>
        <path class="cls-2" d="M60.64,16.33h2.66l4.22,12.34,5.89-13.04,5.62,13.04,4.29-12.34h2.69l-6.52,19.39-6.15-13.8-6.35,13.73-6.35-19.32Z"/>
        <path class="cls-2" d="M92.91,16.33h2.56v18.55h-2.56v-18.55Z"/>
        <path class="cls-2" d="M104.16,15.57l13.83,13.93v-13.17h2.53v19.32l-13.8-13.93v13.17h-2.56V15.57Z"/>
        <path class="cls-2" d="M129.1,16.3h6.52c6.45,0,10.21,3.86,10.21,9.34s-3.73,9.28-10.17,9.28h-6.55v-18.62ZM135.46,32.53c5.39,0,7.78-2.89,7.78-6.88s-2.4-6.92-7.81-6.92h-3.69v13.8h3.73Z"/>
        <path class="cls-2" d="M167.38,15.97c2.83,0,5.52,1.2,7.12,3.16l-1.73,1.53c-1.3-1.46-3.16-2.33-5.39-2.33-4.12,0-7.15,3.13-7.15,7.32s3.03,7.31,7.15,7.31c2.26,0,4.19-.96,5.45-2.46l1.76,1.56c-1.6,2.03-4.36,3.23-7.22,3.23-5.35,0-9.68-4.06-9.68-9.64s4.32-9.68,9.68-9.68Z"/>
        <path class="cls-2" d="M181.32,16.33h6.92c3.29,0,5.98,2.46,5.98,5.65,0,2.49-1.56,4.52-3.69,5.39l4.72,7.51h-2.93l-4.36-7.08h-4.09v7.08h-2.56v-18.55ZM187.97,25.48c2.13,0,3.69-1.46,3.69-3.49,0-1.86-1.5-3.29-3.53-3.29h-4.26v6.78h4.09Z"/>
        <path class="cls-2" d="M202.15,16.33h10.77v2.36h-8.21v5.25h7.68v2.33h-7.68v6.29h8.41v2.33h-10.97v-18.55Z"/>
        <path class="cls-2" d="M220.68,16.33h10.77v2.36h-8.21v5.25h7.68v2.33h-7.68v6.29h8.41v2.33h-10.97v-18.55Z"/>
        <path class="cls-2" d="M239.21,16.33h2.56v9.18l8.91-9.18h3.26l-7.81,8.11,8.05,10.44h-3.09l-6.68-8.68-2.63,2.69v5.98h-2.56v-18.55Z"/>
      </g>
      <path class="cls-2" d="M256.29,18.28c0-1.36,1.06-2.33,2.36-2.33s2.39.97,2.39,2.33-1.07,2.33-2.39,2.33-2.36-.97-2.36-2.33ZM260.56,18.28c0-1.14-.82-1.92-1.91-1.92s-1.89.78-1.89,1.92.81,1.89,1.89,1.89,1.91-.78,1.91-1.89ZM257.79,16.88h.95c.51,0,.86.35.86.84,0,.34-.16.62-.44.78l.65,1.07h-.59l-.59-.98h-.35v.98h-.5v-2.68ZM258.72,18.17c.22,0,.38-.19.38-.42,0-.22-.16-.4-.38-.4h-.44v.82h.44Z"/>
    </g>
  </g>
  <path class="cls-1" d="M44.06,47.18c0-1.08.84-1.85,1.87-1.85s1.9.77,1.9,1.85-.85,1.85-1.9,1.85-1.87-.77-1.87-1.85ZM47.44,47.18c0-.91-.65-1.52-1.51-1.52s-1.5.62-1.5,1.52.64,1.5,1.5,1.5,1.51-.62,1.51-1.5ZM45.24,46.07h.76c.41,0,.69.28.69.66,0,.27-.13.49-.35.62l.51.85h-.47l-.46-.78h-.28v.78h-.4v-2.13ZM45.99,47.1c.17,0,.3-.15.3-.34,0-.17-.13-.31-.3-.31h-.35v.65h.35Z"/>
</svg>